<svg xmlns="http://www.w3.org/2000/svg" xmlns:xlink="http://www.w3.org/1999/xlink" width="130" zoomAndPan="magnify" viewBox="0 0 97.5 38.999999" height="52" preserveAspectRatio="xMidYMid meet" version="1.0"><defs><clipPath id="b2e2ea833f"><path d="M 32 2 L 66.777344 2 L 66.777344 37.40625 L 32 37.40625 Z M 32 2 " clip-rule="nonzero"/></clipPath><clipPath id="4e078c1a3e"><path d="M 38 0.0976562 L 45 0.0976562 L 45 8 L 38 8 Z M 38 0.0976562 " clip-rule="nonzero"/></clipPath><clipPath id="5afdefd69e"><path d="M 30.214844 11 L 33 11 L 33 20 L 30.214844 20 Z M 30.214844 11 " clip-rule="nonzero"/></clipPath><clipPath id="379de7cec3"><path d="M 37 18 L 60 18 L 60 34 L 37 34 Z M 37 18 " clip-rule="nonzero"/></clipPath><clipPath id="fc6e37cadb"><path d="M 36.019531 19.566406 L 57.167969 14.988281 L 60.957031 32.488281 L 39.808594 37.066406 Z M 36.019531 19.566406 " clip-rule="nonzero"/></clipPath><clipPath id="12f21715ba"><path d="M 57.074219 15.007812 L 35.925781 19.585938 L 39.714844 37.085938 L 60.863281 32.507812 Z M 57.074219 15.007812 " clip-rule="nonzero"/></clipPath><clipPath id="c484ce77dc"><path d="M 48 6.253906 L 51 6.253906 L 51 10 L 48 10 Z M 48 6.253906 " clip-rule="nonzero"/></clipPath><clipPath id="8386a858d1"><path d="M 49 6.253906 L 52 6.253906 L 52 10 L 49 10 Z M 49 6.253906 " clip-rule="nonzero"/></clipPath><clipPath id="f9766e52db"><path d="M 50 6.253906 L 52 6.253906 L 52 8 L 50 8 Z M 50 6.253906 " clip-rule="nonzero"/></clipPath><clipPath id="a322fcd8e9"><path d="M 50 10 L 52.367188 10 L 52.367188 12 L 50 12 Z M 50 10 " clip-rule="nonzero"/></clipPath><clipPath id="549979835b"><path d="M 47 9 L 50 9 L 50 21.175781 L 47 21.175781 Z M 47 9 " clip-rule="nonzero"/></clipPath><clipPath id="eb83b9f724"><path d="M 45.652344 8 L 52.367188 8 L 52.367188 19 L 45.652344 19 Z M 45.652344 8 " clip-rule="nonzero"/></clipPath></defs><g clip-path="url(#b2e2ea833f)"><path fill="#f37d6f" d="M 49.433594 37.386719 C 47.09375 37.386719 44.820312 36.929688 42.683594 36.023438 C 40.617188 35.152344 38.765625 33.902344 37.171875 32.308594 C 35.578125 30.714844 34.328125 28.859375 33.453125 26.796875 C 32.550781 24.65625 32.09375 22.386719 32.09375 20.042969 C 32.09375 17.703125 32.550781 15.433594 33.453125 13.292969 C 34.328125 11.230469 35.578125 9.375 37.171875 7.78125 C 38.765625 6.1875 40.617188 4.9375 42.683594 4.066406 C 44.820312 3.160156 47.09375 2.703125 49.433594 2.703125 C 51.777344 2.703125 54.046875 3.160156 56.183594 4.066406 C 58.25 4.9375 60.105469 6.1875 61.699219 7.78125 C 63.289062 9.375 64.539062 11.230469 65.414062 13.292969 C 66.320312 15.433594 66.777344 17.703125 66.777344 20.042969 C 66.777344 22.996094 66.023438 25.914062 64.59375 28.476562 C 64.558594 28.539062 64.480469 28.5625 64.417969 28.527344 C 64.355469 28.492188 64.332031 28.414062 64.367188 28.351562 C 65.773438 25.824219 66.519531 22.953125 66.519531 20.042969 C 66.519531 10.625 58.855469 2.960938 49.433594 2.960938 C 40.015625 2.960938 32.351562 10.625 32.351562 20.042969 C 32.351562 29.464844 40.015625 37.128906 49.433594 37.128906 C 51.539062 37.128906 53.597656 36.75 55.546875 36.003906 C 55.613281 35.976562 55.6875 36.011719 55.714844 36.078125 C 55.738281 36.144531 55.707031 36.21875 55.636719 36.246094 C 53.660156 37.003906 51.574219 37.386719 49.433594 37.386719 Z M 49.433594 37.386719 " fill-opacity="1" fill-rule="nonzero"/></g><g clip-path="url(#4e078c1a3e)"><path fill="#f37d6f" d="M 38.128906 7.195312 C 38.113281 7.195312 38.101562 7.191406 38.085938 7.1875 C 38.027344 7.167969 37.988281 7.101562 38.003906 7.039062 C 38.199219 6.066406 38.382812 5.496094 38.890625 4.890625 C 39.195312 4.53125 39.574219 4.234375 39.90625 3.980469 C 40.746094 3.34375 41.632812 2.75 42.542969 2.214844 L 42.671875 2.140625 C 43.070312 1.90625 43.484375 1.664062 43.816406 1.34375 C 44.136719 1.03125 44.382812 0.644531 44.527344 0.222656 C 44.550781 0.15625 44.617188 0.121094 44.683594 0.136719 C 44.746094 0.152344 44.789062 0.214844 44.777344 0.28125 C 44.660156 1.050781 44.351562 1.789062 43.894531 2.417969 C 43.207031 3.359375 42.203125 4.027344 41.21875 4.613281 C 41.136719 4.660156 41.054688 4.707031 40.972656 4.757812 C 40.117188 5.261719 39.226562 5.78125 38.640625 6.570312 C 38.605469 6.621094 38.566406 6.671875 38.523438 6.722656 C 38.417969 6.855469 38.308594 6.996094 38.246094 7.121094 C 38.222656 7.167969 38.175781 7.195312 38.128906 7.195312 Z M 39.089844 5.058594 C 38.734375 5.484375 38.550781 5.882812 38.398438 6.460938 C 38.410156 6.445312 38.421875 6.433594 38.433594 6.417969 C 39.050781 5.585938 39.960938 5.050781 40.84375 4.53125 C 40.925781 4.484375 41.007812 4.4375 41.089844 4.386719 C 42.046875 3.820312 43.027344 3.167969 43.6875 2.265625 C 43.910156 1.957031 44.097656 1.621094 44.238281 1.265625 C 44.164062 1.359375 44.082031 1.449219 43.996094 1.53125 C 43.644531 1.871094 43.214844 2.121094 42.804688 2.363281 L 42.675781 2.4375 C 41.773438 2.96875 40.894531 3.558594 40.0625 4.1875 C 39.730469 4.441406 39.378906 4.71875 39.089844 5.058594 Z M 39.089844 5.058594 " fill-opacity="1" fill-rule="nonzero"/></g><path fill="#f37d6f" d="M 37.082031 8.207031 C 37.042969 8.207031 37.007812 8.1875 36.980469 8.15625 C 36.941406 8.105469 36.945312 8.035156 36.988281 7.988281 C 37.671875 7.265625 38.128906 6.875 38.878906 6.632812 C 39.328125 6.488281 39.804688 6.433594 40.222656 6.394531 C 41.269531 6.296875 42.335938 6.261719 43.390625 6.289062 L 43.542969 6.292969 C 44.003906 6.304688 44.484375 6.316406 44.933594 6.222656 C 45.371094 6.125 45.785156 5.925781 46.132812 5.644531 C 46.183594 5.601562 46.257812 5.605469 46.304688 5.652344 C 46.355469 5.703125 46.355469 5.777344 46.3125 5.828125 C 45.804688 6.417969 45.15625 6.882812 44.433594 7.175781 C 43.351562 7.613281 42.144531 7.648438 41.003906 7.625 C 40.910156 7.621094 40.8125 7.621094 40.71875 7.617188 C 39.722656 7.59375 38.691406 7.566406 37.777344 7.929688 C 37.722656 7.949219 37.660156 7.972656 37.597656 7.996094 C 37.4375 8.050781 37.273438 8.113281 37.152344 8.1875 C 37.128906 8.199219 37.105469 8.207031 37.082031 8.207031 Z M 38.957031 6.878906 C 38.429688 7.050781 38.066406 7.296875 37.628906 7.707031 C 37.648438 7.699219 37.667969 7.691406 37.683594 7.6875 C 38.648438 7.304688 39.703125 7.332031 40.726562 7.359375 C 40.820312 7.359375 40.914062 7.363281 41.007812 7.367188 C 42.125 7.390625 43.300781 7.355469 44.335938 6.933594 C 44.691406 6.789062 45.027344 6.605469 45.332031 6.378906 C 45.222656 6.417969 45.105469 6.449219 44.988281 6.476562 C 44.507812 6.578125 44.015625 6.566406 43.535156 6.550781 L 43.386719 6.546875 C 42.339844 6.523438 41.285156 6.558594 40.246094 6.65625 C 39.828125 6.691406 39.382812 6.742188 38.957031 6.878906 Z M 38.957031 6.878906 " fill-opacity="1" fill-rule="nonzero"/><g clip-path="url(#5afdefd69e)"><path fill="#f37d6f" d="M 32.261719 19.214844 C 32.222656 19.214844 32.183594 19.195312 32.160156 19.164062 C 31.824219 18.730469 31.585938 18.359375 31.398438 18 C 30.863281 16.957031 30.699219 15.757812 30.609375 14.726562 C 30.585938 14.46875 30.566406 14.207031 30.546875 13.953125 C 30.484375 13.117188 30.421875 12.25 30.226562 11.425781 C 30.214844 11.371094 30.242188 11.308594 30.296875 11.28125 C 30.347656 11.253906 30.414062 11.265625 30.453125 11.3125 C 31.320312 12.316406 31.886719 13.289062 32.1875 14.289062 C 32.527344 15.433594 32.503906 16.636719 32.445312 17.558594 C 32.414062 18.03125 32.398438 18.476562 32.398438 18.914062 C 32.398438 18.976562 32.398438 19.035156 32.390625 19.097656 C 32.386719 19.148438 32.347656 19.195312 32.296875 19.210938 C 32.285156 19.210938 32.273438 19.214844 32.261719 19.214844 Z M 31.632812 17.882812 C 31.765625 18.140625 31.929688 18.410156 32.140625 18.703125 C 32.144531 18.328125 32.160156 17.945312 32.183594 17.542969 C 32.242188 16.644531 32.265625 15.46875 31.9375 14.363281 C 31.6875 13.53125 31.246094 12.714844 30.585938 11.878906 C 30.703125 12.5625 30.753906 13.257812 30.804688 13.933594 C 30.824219 14.183594 30.84375 14.445312 30.867188 14.703125 C 30.957031 15.710938 31.117188 16.875 31.632812 17.882812 Z M 31.632812 17.882812 " fill-opacity="1" fill-rule="nonzero"/></g><path fill="#f37d6f" d="M 32.4375 18.277344 C 32.425781 18.277344 32.414062 18.277344 32.398438 18.273438 C 32.339844 18.257812 32.300781 18.199219 32.308594 18.140625 C 32.320312 17.953125 32.351562 17.75 32.398438 17.527344 C 32.5 17.03125 32.625 16.632812 32.785156 16.277344 C 33.207031 15.355469 33.941406 14.621094 34.648438 13.910156 C 35.386719 13.175781 36.144531 12.414062 36.523438 11.457031 C 36.546875 11.402344 36.597656 11.371094 36.65625 11.375 C 36.714844 11.378906 36.761719 11.421875 36.773438 11.476562 C 37 12.523438 36.628906 13.75 35.761719 14.84375 C 35.277344 15.453125 34.691406 15.984375 34.121094 16.496094 C 33.828125 16.761719 33.523438 17.035156 33.238281 17.316406 C 32.933594 17.617188 32.703125 17.882812 32.554688 18.199219 C 32.554688 18.203125 32.550781 18.207031 32.550781 18.210938 C 32.527344 18.253906 32.484375 18.277344 32.4375 18.277344 Z M 36.574219 11.964844 C 36.148438 12.78125 35.480469 13.445312 34.832031 14.09375 C 34.140625 14.789062 33.425781 15.503906 33.023438 16.386719 C 32.871094 16.722656 32.753906 17.097656 32.65625 17.566406 C 32.78125 17.414062 32.917969 17.269531 33.058594 17.132812 C 33.347656 16.847656 33.652344 16.570312 33.949219 16.304688 C 34.507812 15.796875 35.085938 15.277344 35.558594 14.683594 C 36.257812 13.800781 36.617188 12.832031 36.574219 11.964844 Z M 36.574219 11.964844 " fill-opacity="1" fill-rule="nonzero"/><path fill="#f37d6f" d="M 32.722656 15.53125 C 32.71875 15.53125 32.710938 15.527344 32.707031 15.527344 C 32.648438 15.519531 32.601562 15.472656 32.59375 15.414062 C 32.324219 12.59375 32.757812 9.726562 33.847656 7.117188 C 33.871094 7.058594 33.933594 7.027344 33.996094 7.042969 C 34.058594 7.058594 34.101562 7.117188 34.097656 7.179688 C 34.050781 7.789062 34.0625 8.417969 34.074219 9.023438 C 34.085938 9.648438 34.101562 10.296875 34.046875 10.9375 C 33.925781 12.410156 33.480469 13.804688 32.84375 15.445312 C 32.824219 15.496094 32.777344 15.53125 32.722656 15.53125 Z M 33.804688 7.941406 C 33.003906 10.128906 32.664062 12.480469 32.808594 14.8125 C 33.324219 13.421875 33.683594 12.195312 33.789062 10.914062 C 33.839844 10.289062 33.828125 9.648438 33.8125 9.027344 C 33.808594 8.671875 33.800781 8.304688 33.804688 7.941406 Z M 33.804688 7.941406 " fill-opacity="1" fill-rule="nonzero"/><path fill="#f37d6f" d="M 33.941406 12.367188 C 33.914062 12.367188 33.882812 12.355469 33.859375 12.335938 C 33.8125 12.296875 33.796875 12.230469 33.828125 12.175781 C 33.996094 11.863281 34.246094 11.546875 34.621094 11.1875 C 36.21875 9.65625 38.199219 8.570312 40.351562 8.050781 C 40.40625 8.039062 40.464844 8.0625 40.492188 8.113281 C 40.519531 8.164062 40.511719 8.226562 40.472656 8.269531 C 39.640625 9.128906 38.777344 10.019531 37.6875 10.605469 C 37.238281 10.847656 36.722656 11.042969 36.222656 11.230469 C 35.433594 11.53125 34.621094 11.839844 34.027344 12.335938 C 34 12.355469 33.972656 12.367188 33.941406 12.367188 Z M 34.800781 11.375 C 34.679688 11.492188 34.570312 11.605469 34.472656 11.714844 C 34.984375 11.421875 35.5625 11.203125 36.128906 10.988281 C 36.644531 10.792969 37.132812 10.609375 37.566406 10.378906 C 38.480469 9.886719 39.242188 9.160156 39.964844 8.421875 C 38.03125 8.964844 36.253906 9.980469 34.800781 11.375 Z M 34.800781 11.375 " fill-opacity="1" fill-rule="nonzero"/><path fill="#f37d6f" d="M 34.699219 11.121094 C 34.691406 11.121094 34.683594 11.121094 34.671875 11.117188 C 34.628906 11.109375 34.589844 11.074219 34.578125 11.03125 C 34.496094 10.78125 34.464844 10.503906 34.480469 10.21875 C 34.511719 9.734375 34.679688 9.277344 34.851562 8.855469 C 35.046875 8.375 35.273438 7.894531 35.492188 7.433594 C 35.738281 6.921875 35.988281 6.390625 36.199219 5.855469 C 36.589844 4.867188 36.734375 2.703125 36.738281 2.683594 C 36.742188 2.617188 36.792969 2.566406 36.859375 2.5625 C 36.921875 2.558594 36.980469 2.601562 36.992188 2.667969 C 37.015625 2.789062 37.546875 5.648438 37.191406 7.058594 C 36.757812 8.769531 35.371094 10.4375 34.796875 11.078125 C 34.773438 11.105469 34.738281 11.121094 34.699219 11.121094 Z M 34.742188 10.238281 C 34.730469 10.402344 34.738281 10.566406 34.765625 10.71875 C 35.394531 9.996094 36.554688 8.503906 36.941406 6.996094 C 37.152344 6.152344 37.027344 4.714844 36.898438 3.738281 C 36.8125 4.453125 36.667969 5.375 36.441406 5.949219 C 36.226562 6.492188 35.972656 7.027344 35.730469 7.546875 C 35.511719 8.003906 35.285156 8.476562 35.089844 8.953125 C 34.925781 9.355469 34.769531 9.789062 34.742188 10.238281 Z M 34.742188 10.238281 " fill-opacity="1" fill-rule="nonzero"/><path fill="#f37d6f" d="M 57.347656 35.484375 C 57.347656 35.59375 57.3125 35.683594 57.234375 35.761719 C 57.160156 35.835938 57.066406 35.875 56.960938 35.875 C 56.851562 35.875 56.761719 35.835938 56.683594 35.761719 C 56.609375 35.683594 56.570312 35.59375 56.570312 35.484375 C 56.570312 35.378906 56.609375 35.285156 56.683594 35.210938 C 56.761719 35.132812 56.851562 35.09375 56.960938 35.09375 C 57.066406 35.09375 57.160156 35.132812 57.234375 35.210938 C 57.3125 35.285156 57.347656 35.378906 57.347656 35.484375 Z M 57.347656 35.484375 " fill-opacity="1" fill-rule="nonzero"/><path fill="#f37d6f" d="M 59.914062 33.941406 C 59.914062 34.050781 59.878906 34.140625 59.800781 34.21875 C 59.726562 34.292969 59.632812 34.332031 59.527344 34.332031 C 59.417969 34.332031 59.328125 34.292969 59.25 34.21875 C 59.175781 34.140625 59.136719 34.050781 59.136719 33.941406 C 59.136719 33.835938 59.175781 33.742188 59.25 33.667969 C 59.328125 33.59375 59.417969 33.554688 59.527344 33.554688 C 59.632812 33.554688 59.726562 33.59375 59.800781 33.667969 C 59.878906 33.742188 59.914062 33.835938 59.914062 33.941406 Z M 59.914062 33.941406 " fill-opacity="1" fill-rule="nonzero"/><path fill="#f37d6f" d="M 62.175781 31.980469 C 62.175781 32.085938 62.136719 32.179688 62.0625 32.253906 C 61.984375 32.332031 61.894531 32.367188 61.785156 32.367188 C 61.679688 32.367188 61.585938 32.332031 61.511719 32.253906 C 61.4375 32.179688 61.398438 32.085938 61.398438 31.980469 C 61.398438 31.871094 61.4375 31.78125 61.511719 31.703125 C 61.585938 31.628906 61.679688 31.589844 61.785156 31.589844 C 61.894531 31.589844 61.984375 31.628906 62.0625 31.703125 C 62.136719 31.78125 62.175781 31.871094 62.175781 31.980469 Z M 62.175781 31.980469 " fill-opacity="1" fill-rule="nonzero"/><path fill="#f37d6f" d="M 64.0625 29.652344 C 64.0625 29.761719 64.023438 29.851562 63.945312 29.929688 C 63.871094 30.003906 63.777344 30.042969 63.671875 30.042969 C 63.5625 30.042969 63.472656 30.003906 63.394531 29.929688 C 63.320312 29.851562 63.28125 29.761719 63.28125 29.652344 C 63.28125 29.546875 63.320312 29.453125 63.394531 29.378906 C 63.472656 29.300781 63.5625 29.265625 63.671875 29.265625 C 63.777344 29.265625 63.871094 29.300781 63.945312 29.378906 C 64.023438 29.453125 64.0625 29.546875 64.0625 29.652344 Z M 64.0625 29.652344 " fill-opacity="1" fill-rule="nonzero"/><g clip-path="url(#379de7cec3)"><g clip-path="url(#fc6e37cadb)"><g clip-path="url(#12f21715ba)"><path fill="#f37d6f" d="M 41.183594 20.171875 C 41.324219 20.011719 41.265625 19.816406 41.179688 19.640625 C 41.058594 19.40625 40.910156 19.183594 40.773438 18.960938 C 40.742188 18.910156 40.707031 18.867188 40.671875 18.8125 C 40.855469 18.699219 41.03125 18.707031 41.214844 18.777344 C 41.484375 18.882812 41.710938 19.0625 41.886719 19.289062 C 42.445312 19.984375 42.898438 20.746094 43.3125 21.535156 C 43.5 21.898438 43.6875 22.261719 43.878906 22.625 C 43.914062 22.6875 43.964844 22.746094 44.023438 22.785156 C 44.480469 23.074219 44.941406 23.359375 45.394531 23.648438 C 45.625 23.792969 45.847656 23.941406 46.070312 24.085938 C 46.113281 24.113281 46.171875 24.121094 46.222656 24.136719 C 46.230469 24.117188 46.238281 24.101562 46.246094 24.082031 C 46.085938 24 45.925781 23.925781 45.765625 23.84375 C 45.777344 23.816406 45.792969 23.792969 45.808594 23.765625 C 45.953125 23.765625 46.097656 23.757812 46.242188 23.769531 C 46.28125 23.769531 46.316406 23.832031 46.34375 23.871094 C 46.574219 24.214844 46.808594 24.5625 47.042969 24.902344 C 47.070312 24.941406 47.109375 24.972656 47.144531 25.003906 C 47.15625 25 47.171875 24.984375 47.183594 24.976562 C 47.164062 24.929688 47.148438 24.882812 47.121094 24.84375 C 46.988281 24.644531 46.851562 24.449219 46.714844 24.257812 C 46.316406 23.695312 46.039062 23.082031 45.90625 22.40625 C 45.726562 21.496094 45.414062 20.636719 45.027344 19.800781 C 44.996094 19.726562 44.960938 19.660156 44.921875 19.589844 C 45.125 19.40625 45.164062 19.234375 45.054688 18.964844 C 44.988281 18.796875 44.890625 18.632812 44.800781 18.445312 C 44.871094 18.453125 44.9375 18.457031 44.996094 18.472656 C 45.332031 18.554688 45.5625 18.777344 45.746094 19.0625 C 46.136719 19.660156 46.394531 20.324219 46.679688 20.976562 C 46.90625 21.503906 47.125 22.039062 47.375 22.558594 C 47.617188 23.058594 47.988281 23.457031 48.476562 23.734375 C 48.648438 23.828125 48.8125 23.941406 48.984375 24.035156 C 49.117188 24.101562 49.191406 24.183594 49.148438 24.339844 C 49.136719 24.375 49.152344 24.414062 49.148438 24.457031 C 49.167969 24.460938 49.1875 24.460938 49.207031 24.464844 C 49.226562 24.402344 49.253906 24.335938 49.257812 24.265625 C 49.261719 24.183594 49.296875 24.148438 49.378906 24.121094 C 49.601562 24.039062 49.820312 23.945312 50.039062 23.847656 C 50.617188 23.578125 51.191406 23.292969 51.769531 23.027344 C 51.921875 22.960938 52.101562 22.953125 52.265625 22.917969 C 52.261719 22.894531 52.265625 22.875 52.261719 22.851562 C 52.214844 22.847656 52.160156 22.824219 52.121094 22.835938 C 51.800781 22.9375 51.46875 23.019531 51.164062 23.160156 C 50.65625 23.390625 50.160156 23.660156 49.667969 23.917969 C 49.402344 24.058594 49.160156 24.066406 48.90625 23.875 C 48.683594 23.710938 48.4375 23.589844 48.210938 23.429688 C 47.753906 23.105469 47.507812 22.613281 47.257812 22.117188 C 47.65625 22.070312 48.03125 22.035156 48.40625 21.992188 C 49.261719 21.890625 50.113281 21.855469 50.964844 21.972656 C 51.6875 22.078125 52.394531 22.257812 53.042969 22.597656 C 53.289062 22.722656 53.539062 22.867188 53.75 23.042969 C 55.289062 24.285156 56.933594 25.375 58.597656 26.4375 C 58.898438 26.632812 59.191406 26.839844 59.488281 27.039062 C 59.539062 27.070312 59.597656 27.085938 59.648438 27.113281 C 59.660156 27.097656 59.667969 27.074219 59.679688 27.058594 C 59.636719 27.027344 59.59375 26.996094 59.550781 26.960938 C 58.523438 26.28125 57.476562 25.617188 56.460938 24.914062 C 55.554688 24.285156 54.683594 23.597656 53.796875 22.941406 C 53.21875 22.507812 52.566406 22.238281 51.871094 22.054688 C 50.78125 21.773438 49.683594 21.753906 48.578125 21.882812 C 48.195312 21.925781 47.8125 21.953125 47.433594 22.003906 C 47.261719 22.027344 47.179688 21.972656 47.113281 21.804688 C 46.839844 21.128906 46.5625 20.460938 46.261719 19.800781 C 46.121094 19.484375 45.933594 19.1875 45.746094 18.894531 C 45.53125 18.5625 45.210938 18.382812 44.8125 18.339844 C 44.742188 18.332031 44.667969 18.277344 44.605469 18.230469 C 44.511719 18.15625 44.433594 18.011719 44.296875 18.078125 C 44.148438 18.152344 44.203125 18.308594 44.242188 18.425781 C 44.332031 18.667969 44.417969 18.90625 44.542969 19.125 C 45.003906 19.925781 45.355469 20.773438 45.613281 21.65625 C 45.628906 21.707031 45.636719 21.761719 45.65625 21.84375 C 45.574219 21.8125 45.519531 21.785156 45.460938 21.765625 C 44.851562 21.554688 44.253906 21.300781 43.632812 21.160156 C 43.292969 21.082031 43.09375 20.949219 42.925781 20.652344 C 42.664062 20.191406 42.351562 19.765625 42.050781 19.332031 C 41.863281 19.070312 41.625 18.863281 41.332031 18.722656 C 41.113281 18.617188 40.898438 18.601562 40.667969 18.695312 C 40.625 18.714844 40.570312 18.691406 40.519531 18.683594 C 40.441406 18.671875 40.335938 18.628906 40.292969 18.667969 C 40.25 18.703125 40.230469 18.824219 40.257812 18.886719 C 40.332031 19.078125 40.421875 19.265625 40.53125 19.441406 C 40.902344 20.050781 41.300781 20.636719 41.65625 21.25 C 42.125 22.058594 42.480469 22.925781 42.78125 23.808594 C 42.882812 24.101562 43.0625 24.328125 43.316406 24.5 C 43.617188 24.707031 43.921875 24.917969 44.230469 25.117188 C 44.707031 25.4375 45.183594 25.75 45.65625 26.066406 C 46.082031 26.351562 46.496094 26.652344 46.996094 26.824219 C 46.71875 26.960938 46.214844 26.929688 45.878906 26.757812 C 45.472656 26.550781 45.066406 26.335938 44.660156 26.136719 C 43.847656 25.742188 43.035156 25.363281 42.226562 24.976562 C 41.949219 24.84375 41.671875 24.714844 41.398438 24.570312 C 41.300781 24.519531 41.191406 24.4375 41.136719 24.34375 C 40.464844 23.171875 39.648438 22.105469 38.761719 21.089844 C 38.753906 21.082031 38.75 21.074219 38.742188 21.058594 C 38.914062 20.855469 38.839844 20.644531 38.710938 20.464844 C 38.519531 20.207031 38.300781 19.972656 38.082031 19.707031 C 38.1875 19.570312 38.351562 19.519531 38.542969 19.550781 C 38.84375 19.59375 39.089844 19.746094 39.292969 19.964844 C 39.722656 20.421875 40.140625 20.882812 40.554688 21.34375 C 40.960938 21.800781 41.351562 22.277344 41.765625 22.722656 C 41.953125 22.921875 42.183594 23.082031 42.394531 23.253906 C 42.429688 23.28125 42.476562 23.292969 42.523438 23.3125 C 42.535156 23.300781 42.542969 23.285156 42.554688 23.273438 C 42.53125 23.242188 42.511719 23.203125 42.480469 23.183594 C 42.070312 22.953125 41.785156 22.59375 41.484375 22.253906 C 40.8125 21.5 40.152344 20.746094 39.480469 19.992188 C 39.289062 19.777344 39.066406 19.597656 38.792969 19.5 C 38.503906 19.402344 38.242188 19.386719 38.011719 19.613281 C 37.988281 19.636719 37.933594 19.636719 37.894531 19.628906 C 37.847656 19.621094 37.800781 19.589844 37.75 19.582031 C 37.632812 19.5625 37.570312 19.640625 37.617188 19.75 C 37.644531 19.820312 37.6875 19.886719 37.738281 19.949219 C 38.269531 20.617188 38.820312 21.261719 39.339844 21.941406 C 39.828125 22.578125 40.28125 23.242188 40.75 23.894531 C 40.78125 23.9375 40.804688 23.988281 40.847656 24.0625 C 40.648438 24 40.480469 23.933594 40.3125 23.894531 C 39.742188 23.746094 39.179688 23.59375 38.601562 23.480469 C 38.339844 23.433594 38.054688 23.457031 37.785156 23.496094 C 37.503906 23.539062 37.320312 23.730469 37.214844 24 C 37.199219 24.035156 37.179688 24.074219 37.15625 24.105469 C 37.042969 24.207031 37.046875 24.28125 37.199219 24.328125 C 37.511719 24.425781 37.828125 24.5 38.140625 24.585938 C 38.324219 24.636719 38.515625 24.667969 38.691406 24.742188 C 39.480469 25.050781 40.265625 25.375 40.96875 25.851562 C 41.296875 26.074219 41.628906 26.152344 42.003906 26.144531 C 42.746094 26.132812 43.488281 26.132812 44.230469 26.144531 C 44.378906 26.144531 44.539062 26.1875 44.679688 26.25 C 45.027344 26.410156 45.375 26.582031 45.707031 26.773438 C 46.125 27.015625 46.554688 27.046875 47.015625 26.945312 C 48.113281 26.707031 49.21875 26.570312 50.347656 26.550781 C 50.851562 26.546875 51.34375 26.558594 51.828125 26.671875 C 52.507812 26.828125 53.074219 27.210938 53.621094 27.609375 C 54.429688 28.191406 55.121094 28.90625 55.789062 29.640625 C 56.578125 30.511719 57.339844 31.410156 58.105469 32.3125 C 58.328125 32.578125 58.496094 32.882812 58.691406 33.171875 C 58.714844 33.210938 58.734375 33.246094 58.765625 33.273438 C 58.78125 33.289062 58.820312 33.296875 58.832031 33.285156 C 58.851562 33.269531 58.871094 33.230469 58.863281 33.210938 C 58.847656 33.167969 58.820312 33.125 58.792969 33.085938 C 58.273438 32.222656 57.625 31.460938 56.957031 30.710938 C 56.132812 29.785156 55.292969 28.867188 54.371094 28.039062 C 53.839844 27.5625 53.265625 27.136719 52.628906 26.816406 C 51.875 26.4375 51.070312 26.332031 50.234375 26.433594 C 49.871094 26.480469 49.496094 26.464844 49.132812 26.5 C 48.597656 26.5625 48.070312 26.644531 47.542969 26.726562 C 47.285156 26.761719 47.035156 26.738281 46.800781 26.617188 C 46.5625 26.496094 46.320312 26.367188 46.09375 26.222656 C 45.351562 25.734375 44.613281 25.242188 43.878906 24.746094 C 43.648438 24.59375 43.421875 24.4375 43.21875 24.257812 C 43.097656 24.152344 42.996094 24.003906 42.933594 23.855469 C 42.664062 23.230469 42.441406 22.585938 42.148438 21.976562 C 41.855469 21.367188 41.507812 20.78125 41.183594 20.171875 Z M 37.296875 24.082031 C 37.363281 23.785156 37.621094 23.5625 37.96875 23.558594 C 38.285156 23.554688 38.605469 23.574219 38.910156 23.648438 C 39.53125 23.792969 40.148438 23.992188 40.769531 24.152344 C 40.902344 24.183594 40.945312 24.269531 41.015625 24.355469 C 41.113281 24.472656 41.210938 24.613281 41.34375 24.675781 C 42.222656 25.105469 43.105469 25.515625 43.988281 25.929688 C 44.039062 25.949219 44.089844 25.980469 44.167969 26.023438 C 44.097656 26.03125 44.0625 26.035156 44.03125 26.039062 C 43.421875 26.042969 42.816406 26.03125 42.210938 26.054688 C 41.730469 26.070312 41.308594 25.980469 40.890625 25.703125 C 40.183594 25.222656 39.386719 24.914062 38.59375 24.597656 C 38.535156 24.574219 38.453125 24.558594 38.429688 24.511719 C 38.324219 24.335938 38.148438 24.292969 37.976562 24.242188 C 37.757812 24.183594 37.535156 24.136719 37.296875 24.082031 Z M 43.253906 21.214844 C 43.265625 21.199219 43.273438 21.1875 43.285156 21.171875 C 43.492188 21.214844 43.703125 21.238281 43.90625 21.308594 C 44.464844 21.5 45.011719 21.714844 45.570312 21.914062 C 45.664062 21.949219 45.707031 22.003906 45.730469 22.101562 C 45.8125 22.433594 45.894531 22.769531 45.988281 23.09375 C 46.03125 23.25 46.097656 23.398438 46.171875 23.582031 C 45.902344 23.519531 45.664062 23.464844 45.425781 23.414062 C 44.894531 23.296875 44.480469 22.957031 44.046875 22.648438 C 44.015625 22.625 43.988281 22.589844 43.964844 22.554688 C 43.730469 22.109375 43.492188 21.660156 43.253906 21.214844 Z M 44.308594 18.179688 C 44.332031 18.15625 44.355469 18.132812 44.375 18.109375 C 44.410156 18.148438 44.445312 18.1875 44.472656 18.234375 C 44.640625 18.492188 44.804688 18.753906 44.960938 19.019531 C 45.003906 19.09375 45.003906 19.199219 44.996094 19.289062 C 44.992188 19.351562 44.933594 19.410156 44.878906 19.507812 C 44.636719 19.046875 44.339844 18.667969 44.308594 18.179688 Z M 38.722656 20.933594 C 38.691406 20.945312 38.664062 20.957031 38.632812 20.964844 C 38.316406 20.554688 38 20.136719 37.683594 19.726562 C 37.695312 19.714844 37.707031 19.703125 37.71875 19.6875 C 37.753906 19.699219 37.792969 19.699219 37.828125 19.71875 C 38.199219 19.941406 38.480469 20.257812 38.683594 20.636719 C 38.726562 20.71875 38.710938 20.835938 38.722656 20.933594 Z M 40.320312 18.722656 C 40.375 18.726562 40.394531 18.722656 40.402344 18.730469 C 40.429688 18.738281 40.453125 18.753906 40.472656 18.769531 C 40.773438 19.09375 41.023438 19.445312 41.144531 19.875 C 41.164062 19.933594 41.140625 20.007812 41.136719 20.074219 C 41.121094 20.078125 41.101562 20.082031 41.085938 20.085938 C 40.8125 19.648438 40.453125 19.265625 40.320312 18.722656 Z M 38.261719 24.460938 C 38.257812 24.480469 38.246094 24.496094 38.242188 24.515625 C 37.902344 24.425781 37.566406 24.34375 37.230469 24.253906 C 37.234375 24.234375 37.238281 24.214844 37.246094 24.195312 C 37.589844 24.242188 37.941406 24.300781 38.261719 24.460938 Z M 38.261719 24.460938 " fill-opacity="1" fill-rule="nonzero"/></g></g></g><g clip-path="url(#c484ce77dc)"><path fill="#f4968a" d="M 49.734375 9.25 C 49.472656 9.273438 49.226562 9.148438 49.050781 8.957031 C 48.855469 8.742188 48.773438 8.460938 48.78125 8.175781 C 48.792969 7.898438 48.894531 7.632812 49.03125 7.398438 C 49.164062 7.171875 49.320312 6.972656 49.527344 6.816406 C 49.738281 6.65625 49.984375 6.550781 50.21875 6.433594 C 50.300781 6.394531 50.550781 6.265625 50.554688 6.445312 C 50.558594 6.507812 50.539062 6.578125 50.53125 6.640625 C 50.527344 6.726562 50.527344 6.816406 50.523438 6.902344 C 50.523438 6.992188 50.523438 7.082031 50.515625 7.171875 C 50.511719 7.257812 50.496094 7.347656 50.484375 7.433594 C 50.464844 7.558594 50.449219 7.675781 50.429688 7.800781 C 50.414062 7.902344 50.402344 8.003906 50.382812 8.105469 C 50.347656 8.289062 50.289062 8.476562 50.21875 8.648438 C 50.160156 8.796875 50.101562 8.945312 50 9.074219 C 49.910156 9.1875 49.789062 9.253906 49.644531 9.261719 C 49.59375 9.261719 49.550781 9.257812 49.503906 9.253906 C 49.453125 9.253906 49.453125 9.324219 49.503906 9.328125 C 49.621094 9.34375 49.738281 9.339844 49.851562 9.292969 C 49.996094 9.234375 50.089844 9.09375 50.164062 8.957031 C 50.296875 8.710938 50.390625 8.441406 50.445312 8.167969 C 50.464844 8.082031 50.476562 7.996094 50.492188 7.910156 C 50.53125 7.628906 50.59375 7.34375 50.601562 7.058594 C 50.601562 6.875 50.601562 6.695312 50.628906 6.515625 C 50.636719 6.457031 50.636719 6.390625 50.601562 6.339844 C 50.566406 6.292969 50.503906 6.285156 50.449219 6.289062 C 50.300781 6.304688 50.15625 6.394531 50.019531 6.460938 C 49.894531 6.519531 49.765625 6.585938 49.648438 6.660156 C 49.410156 6.808594 49.207031 7 49.054688 7.238281 C 48.902344 7.46875 48.777344 7.722656 48.734375 8 C 48.683594 8.296875 48.726562 8.617188 48.886719 8.875 C 49.03125 9.101562 49.265625 9.289062 49.539062 9.332031 C 49.605469 9.34375 49.675781 9.347656 49.738281 9.339844 C 49.785156 9.320312 49.785156 9.242188 49.734375 9.25 Z M 49.734375 9.25 " fill-opacity="1" fill-rule="nonzero"/></g><g clip-path="url(#8386a858d1)"><path fill="#f4968a" d="M 50.511719 7.707031 C 50.695312 7.480469 50.878906 7.253906 51.0625 7.027344 C 51.097656 6.972656 51.144531 6.921875 51.183594 6.871094 C 51.1875 6.867188 51.199219 6.851562 51.207031 6.851562 C 51.234375 6.863281 51.234375 6.957031 51.238281 6.972656 C 51.246094 7.058594 51.246094 7.140625 51.242188 7.222656 C 51.226562 7.574219 51.101562 7.90625 50.957031 8.21875 C 50.878906 8.378906 50.796875 8.53125 50.71875 8.683594 C 50.65625 8.804688 50.597656 8.9375 50.492188 9.027344 C 50.28125 9.222656 49.972656 9.265625 49.695312 9.238281 C 49.648438 9.238281 49.648438 9.308594 49.695312 9.3125 C 49.957031 9.339844 50.234375 9.296875 50.457031 9.148438 C 50.582031 9.058594 50.660156 8.945312 50.730469 8.8125 C 50.816406 8.644531 50.90625 8.484375 50.992188 8.316406 C 51.152344 7.980469 51.289062 7.632812 51.3125 7.261719 C 51.320312 7.167969 51.316406 7.074219 51.308594 6.980469 C 51.304688 6.921875 51.304688 6.828125 51.246094 6.785156 C 51.167969 6.738281 51.113281 6.835938 51.078125 6.882812 C 50.875 7.140625 50.671875 7.394531 50.460938 7.648438 C 50.429688 7.691406 50.484375 7.746094 50.511719 7.707031 Z M 50.511719 7.707031 " fill-opacity="1" fill-rule="nonzero"/></g><g clip-path="url(#f9766e52db)"><path fill="#f4968a" d="M 50.648438 6.460938 C 50.699219 6.417969 50.789062 6.347656 50.855469 6.367188 C 50.898438 6.375 50.917969 6.433594 50.929688 6.476562 C 50.964844 6.621094 50.945312 6.785156 50.921875 6.933594 C 50.917969 6.988281 50.902344 7.042969 50.894531 7.097656 C 50.882812 7.148438 50.957031 7.164062 50.96875 7.117188 C 50.996094 6.972656 51.019531 6.828125 51.023438 6.679688 C 51.027344 6.5625 51.027344 6.335938 50.882812 6.296875 C 50.777344 6.265625 50.671875 6.351562 50.601562 6.410156 C 50.5625 6.441406 50.613281 6.492188 50.648438 6.460938 Z M 50.648438 6.460938 " fill-opacity="1" fill-rule="nonzero"/></g><g clip-path="url(#a322fcd8e9)"><path fill="#f4968a" d="M 50.621094 11.066406 C 50.933594 10.929688 51.253906 10.820312 51.589844 10.742188 C 51.671875 10.722656 51.753906 10.703125 51.839844 10.6875 C 51.875 10.683594 51.917969 10.671875 51.953125 10.667969 C 51.992188 10.660156 52.046875 10.640625 52.078125 10.667969 C 52.132812 10.714844 52.132812 10.816406 52.125 10.878906 C 52.117188 10.953125 52.082031 11.019531 52.042969 11.078125 C 51.964844 11.203125 51.847656 11.308594 51.734375 11.402344 C 51.613281 11.5 51.484375 11.585938 51.347656 11.660156 C 51.210938 11.730469 51.070312 11.792969 50.921875 11.835938 C 50.777344 11.886719 50.609375 11.925781 50.472656 11.828125 C 50.363281 11.75 50.300781 11.625 50.238281 11.515625 C 50.160156 11.375 50.089844 11.222656 50.144531 11.058594 C 50.195312 10.917969 50.308594 10.804688 50.414062 10.707031 C 50.527344 10.613281 50.648438 10.527344 50.777344 10.453125 C 51.039062 10.308594 51.328125 10.21875 51.621094 10.195312 C 51.6875 10.191406 51.769531 10.175781 51.839844 10.210938 C 51.894531 10.242188 51.929688 10.296875 51.945312 10.355469 C 51.980469 10.503906 51.886719 10.644531 51.804688 10.757812 C 51.609375 11.007812 51.378906 11.234375 51.128906 11.425781 C 51.007812 11.515625 50.875 11.605469 50.726562 11.632812 C 50.589844 11.660156 50.445312 11.632812 50.328125 11.566406 C 50.265625 11.535156 50.214844 11.488281 50.167969 11.441406 C 50.136719 11.40625 50.085938 11.460938 50.117188 11.492188 C 50.210938 11.605469 50.351562 11.679688 50.496094 11.703125 C 50.65625 11.730469 50.808594 11.699219 50.949219 11.625 C 51.101562 11.546875 51.242188 11.429688 51.375 11.316406 C 51.507812 11.199219 51.632812 11.070312 51.75 10.9375 C 51.855469 10.8125 51.976562 10.675781 52.015625 10.511719 C 52.042969 10.386719 52.011719 10.234375 51.894531 10.15625 C 51.832031 10.113281 51.75 10.113281 51.675781 10.121094 C 51.589844 10.121094 51.511719 10.136719 51.433594 10.144531 C 51.273438 10.175781 51.113281 10.21875 50.957031 10.28125 C 50.808594 10.347656 50.667969 10.425781 50.53125 10.519531 C 50.402344 10.613281 50.273438 10.722656 50.175781 10.855469 C 50.074219 10.988281 50.027344 11.148438 50.070312 11.3125 C 50.09375 11.394531 50.136719 11.476562 50.175781 11.554688 C 50.210938 11.617188 50.25 11.6875 50.292969 11.746094 C 50.382812 11.871094 50.5 11.960938 50.660156 11.96875 C 50.832031 11.972656 51.007812 11.902344 51.164062 11.835938 C 51.46875 11.703125 51.773438 11.515625 52 11.265625 C 52.105469 11.148438 52.203125 11.003906 52.207031 10.84375 C 52.210938 10.777344 52.195312 10.6875 52.148438 10.632812 C 52.09375 10.574219 52.015625 10.582031 51.945312 10.597656 C 51.574219 10.664062 51.203125 10.769531 50.847656 10.90625 C 50.761719 10.9375 50.675781 10.972656 50.589844 11.015625 C 50.539062 11.023438 50.578125 11.089844 50.621094 11.066406 Z M 50.621094 11.066406 " fill-opacity="1" fill-rule="nonzero"/></g><g clip-path="url(#549979835b)"><path fill="#f4968a" d="M 47.898438 21.390625 C 47.707031 20.6875 47.574219 19.96875 47.492188 19.25 C 47.390625 18.34375 47.378906 17.429688 47.457031 16.527344 C 47.53125 15.714844 47.683594 14.910156 47.855469 14.117188 C 48.003906 13.417969 48.167969 12.722656 48.363281 12.039062 C 48.605469 11.199219 48.886719 10.363281 49.210938 9.546875 C 49.257812 9.433594 49.300781 9.324219 49.347656 9.210938 C 49.363281 9.167969 49.292969 9.148438 49.273438 9.191406 C 48.929688 10.027344 48.632812 10.882812 48.371094 11.746094 C 48.160156 12.4375 47.988281 13.132812 47.832031 13.835938 C 47.660156 14.628906 47.496094 15.425781 47.40625 16.234375 C 47.304688 17.140625 47.300781 18.050781 47.382812 18.953125 C 47.453125 19.714844 47.582031 20.46875 47.769531 21.207031 C 47.789062 21.277344 47.804688 21.347656 47.824219 21.417969 C 47.84375 21.457031 47.910156 21.4375 47.898438 21.390625 Z M 47.898438 21.390625 " fill-opacity="1" fill-rule="nonzero"/></g><path fill="#f4968a" d="M 47.410156 18.101562 C 47.65625 17.132812 47.921875 16.167969 48.214844 15.214844 C 48.351562 14.769531 48.488281 14.320312 48.640625 13.878906 C 48.785156 13.480469 48.957031 13.089844 49.1875 12.734375 C 49.46875 12.289062 49.820312 11.894531 50.226562 11.5625 C 50.261719 11.535156 50.210938 11.480469 50.175781 11.511719 C 49.808594 11.804688 49.488281 12.152344 49.222656 12.539062 C 48.976562 12.898438 48.78125 13.289062 48.625 13.703125 C 48.464844 14.121094 48.339844 14.554688 48.203125 14.984375 C 48.050781 15.480469 47.898438 15.976562 47.761719 16.476562 C 47.613281 17.011719 47.472656 17.546875 47.332031 18.082031 C 47.328125 18.128906 47.398438 18.148438 47.410156 18.101562 Z M 47.410156 18.101562 " fill-opacity="1" fill-rule="nonzero"/><g clip-path="url(#eb83b9f724)"><path fill="#f4968a" d="M 47.359375 18.625 C 47.207031 17.949219 46.960938 17.304688 46.730469 16.660156 C 46.496094 16.019531 46.269531 15.371094 46.152344 14.691406 C 46.027344 13.949219 46.089844 13.199219 46.144531 12.453125 C 46.171875 12.066406 46.203125 11.679688 46.238281 11.296875 C 46.273438 10.917969 46.324219 10.546875 46.359375 10.164062 C 46.394531 9.8125 46.417969 9.449219 46.359375 9.097656 C 46.304688 8.820312 46.199219 8.425781 45.878906 8.363281 C 45.8125 8.347656 45.742188 8.355469 45.679688 8.382812 C 45.664062 8.386719 45.652344 8.402344 45.652344 8.417969 C 45.667969 8.566406 45.726562 8.707031 45.792969 8.839844 C 45.863281 8.988281 45.933594 9.132812 46.003906 9.273438 C 46.144531 9.570312 46.289062 9.863281 46.429688 10.15625 C 46.71875 10.753906 47.007812 11.339844 47.296875 11.9375 C 47.582031 12.527344 47.871094 13.117188 48.15625 13.710938 C 48.390625 14.203125 48.550781 14.734375 48.589844 15.28125 C 48.613281 15.535156 48.605469 15.792969 48.585938 16.042969 C 48.570312 16.203125 48.554688 16.363281 48.519531 16.523438 C 48.484375 16.683594 48.429688 16.839844 48.371094 17 C 48.320312 17.128906 48.261719 17.253906 48.195312 17.375 C 48.160156 17.441406 48.125 17.511719 48.085938 17.578125 C 48.054688 17.625 48.011719 17.722656 47.960938 17.746094 C 47.882812 17.777344 47.851562 17.640625 47.851562 17.59375 C 47.847656 17.515625 47.871094 17.441406 47.894531 17.371094 C 47.949219 17.234375 48.011719 17.105469 48.074219 16.96875 C 48.191406 16.703125 48.320312 16.433594 48.460938 16.179688 C 48.710938 15.738281 49.015625 15.332031 49.378906 14.976562 C 50.160156 14.207031 51.15625 13.691406 52.226562 13.464844 C 52.316406 13.445312 52.40625 13.429688 52.492188 13.410156 C 52.527344 13.40625 52.527344 13.351562 52.492188 13.339844 C 52.1875 13.261719 51.949219 13.597656 51.777344 13.800781 C 51.566406 14.046875 51.359375 14.292969 51.15625 14.542969 C 50.75 15.050781 50.347656 15.5625 49.898438 16.03125 C 49.648438 16.292969 49.382812 16.546875 49.097656 16.773438 C 49.0625 16.804688 49.109375 16.855469 49.148438 16.824219 C 49.640625 16.433594 50.070312 15.972656 50.480469 15.492188 C 50.886719 15.007812 51.273438 14.503906 51.683594 14.023438 C 51.796875 13.886719 51.910156 13.757812 52.03125 13.628906 C 52.144531 13.507812 52.300781 13.367188 52.480469 13.410156 C 52.480469 13.382812 52.480469 13.359375 52.480469 13.335938 C 52.027344 13.410156 51.585938 13.535156 51.160156 13.710938 C 50.59375 13.941406 50.070312 14.269531 49.605469 14.667969 C 49.222656 15 48.871094 15.390625 48.597656 15.820312 C 48.429688 16.078125 48.289062 16.351562 48.160156 16.625 C 48.09375 16.765625 48.03125 16.910156 47.96875 17.050781 C 47.910156 17.179688 47.835938 17.3125 47.808594 17.453125 C 47.78125 17.566406 47.78125 17.714844 47.882812 17.792969 C 48 17.878906 48.089844 17.730469 48.140625 17.648438 C 48.285156 17.40625 48.410156 17.144531 48.503906 16.878906 C 48.550781 16.761719 48.589844 16.632812 48.613281 16.507812 C 48.652344 16.304688 48.675781 16.089844 48.6875 15.882812 C 48.722656 15.300781 48.640625 14.714844 48.445312 14.164062 C 48.359375 13.921875 48.25 13.691406 48.136719 13.460938 C 47.988281 13.152344 47.839844 12.847656 47.6875 12.542969 C 47.390625 11.925781 47.089844 11.3125 46.792969 10.695312 C 46.496094 10.078125 46.195312 9.46875 45.898438 8.847656 C 45.828125 8.707031 45.753906 8.5625 45.742188 8.402344 C 45.738281 8.410156 45.722656 8.425781 45.71875 8.4375 C 45.867188 8.371094 46.03125 8.460938 46.121094 8.582031 C 46.214844 8.71875 46.261719 8.886719 46.292969 9.046875 C 46.367188 9.394531 46.347656 9.753906 46.3125 10.105469 C 46.277344 10.476562 46.230469 10.84375 46.195312 11.210938 C 46.160156 11.585938 46.128906 11.960938 46.097656 12.332031 C 46.042969 13.066406 45.980469 13.808594 46.078125 14.535156 C 46.171875 15.195312 46.382812 15.832031 46.609375 16.46875 C 46.835938 17.101562 47.082031 17.726562 47.25 18.378906 C 47.273438 18.464844 47.289062 18.542969 47.308594 18.625 C 47.296875 18.691406 47.367188 18.667969 47.359375 18.625 Z M 47.359375 18.625 " fill-opacity="1" fill-rule="nonzero"/></g></svg>