<svg xmlns="http://www.w3.org/2000/svg" xmlns:xlink="http://www.w3.org/1999/xlink" width="200" zoomAndPan="magnify" viewBox="0 0 150 149.999998" height="200" preserveAspectRatio="xMidYMid meet" version="1.0"><defs><g/><clipPath id="191f22a2ad"><path d="M 5.101562 7.003906 L 145 7.003906 L 145 142.996094 L 5.101562 142.996094 Z M 5.101562 7.003906 " clip-rule="nonzero"/></clipPath><clipPath id="6d23a17981"><path d="M 75 7.003906 C 36.394531 7.003906 5.101562 37.445312 5.101562 75 C 5.101562 112.554688 36.394531 142.996094 75 142.996094 C 113.605469 142.996094 144.898438 112.554688 144.898438 75 C 144.898438 37.445312 113.605469 7.003906 75 7.003906 Z M 75 7.003906 " clip-rule="nonzero"/></clipPath><clipPath id="759b35ff98"><path d="M 5.101562 7.003906 L 144.601562 7.003906 L 144.601562 142.753906 L 5.101562 142.753906 Z M 5.101562 7.003906 " clip-rule="nonzero"/></clipPath><clipPath id="6789595df6"><path d="M 74.996094 7.003906 C 36.394531 7.003906 5.101562 37.441406 5.101562 74.996094 C 5.101562 112.546875 36.394531 142.988281 74.996094 142.988281 C 113.597656 142.988281 144.890625 112.546875 144.890625 74.996094 C 144.890625 37.441406 113.597656 7.003906 74.996094 7.003906 Z M 74.996094 7.003906 " clip-rule="nonzero"/></clipPath><clipPath id="00ca9fd9da"><path d="M 33 32 L 117.757812 32 L 117.757812 116.671875 L 33 116.671875 Z M 33 32 " clip-rule="nonzero"/></clipPath><clipPath id="01bda729ee"><path d="M 48 25.921875 L 65 25.921875 L 65 44 L 48 44 Z M 48 25.921875 " clip-rule="nonzero"/></clipPath><clipPath id="7b5f2e71bb"><path d="M 29.257812 53 L 35 53 L 35 73 L 29.257812 73 Z M 29.257812 53 " clip-rule="nonzero"/></clipPath><clipPath id="acab75d21a"><path d="M 46 71 L 100 71 L 100 107 L 46 107 Z M 46 71 " clip-rule="nonzero"/></clipPath><clipPath id="c1cb5ffbe5"><path d="M 44.496094 74.804688 L 93.609375 64.171875 L 102.652344 105.957031 L 53.542969 116.585938 Z M 44.496094 74.804688 " clip-rule="nonzero"/></clipPath><clipPath id="324972e4b7"><path d="M 93.609375 64.171875 L 44.496094 74.804688 L 53.542969 116.585938 L 102.652344 105.957031 Z M 93.609375 64.171875 " clip-rule="nonzero"/></clipPath><clipPath id="216f2f4f6a"><path d="M 74 43.757812 L 79 43.757812 L 79 51 L 74 51 Z M 74 43.757812 " clip-rule="nonzero"/></clipPath><clipPath id="a1373a02be"><path d="M 78 43.757812 L 80 43.757812 L 80 46 L 78 46 Z M 78 43.757812 " clip-rule="nonzero"/></clipPath><clipPath id="5861611ec6"><path d="M 77 52 L 82.714844 52 L 82.714844 58 L 77 58 Z M 77 52 " clip-rule="nonzero"/></clipPath><clipPath id="4987d89fe7"><path d="M 70 50 L 76 50 L 76 79.007812 L 70 79.007812 Z M 70 50 " clip-rule="nonzero"/></clipPath><clipPath id="9939de187d"><path d="M 66.964844 48 L 82.714844 48 L 82.714844 73 L 66.964844 73 Z M 66.964844 48 " clip-rule="nonzero"/></clipPath></defs><g clip-path="url(#191f22a2ad)"><g clip-path="url(#6d23a17981)"><path fill="#ffffff" d="M 5.101562 7.003906 L 144.816406 7.003906 L 144.816406 142.996094 L 5.101562 142.996094 Z M 5.101562 7.003906 " fill-opacity="1" fill-rule="nonzero"/></g></g><g clip-path="url(#759b35ff98)"><g clip-path="url(#6789595df6)"><path stroke-linecap="butt" transform="matrix(0.75, 0, 0, 0.75, 5.102796, 7.002056)" fill="none" stroke-linejoin="miter" d="M 93.191068 0.00246658 C 41.722315 0.00246658 -0.0016453 40.585802 -0.0016453 90.658722 C -0.0016453 140.726433 41.722315 181.314977 93.191068 181.314977 C 144.659821 181.314977 186.383782 140.726433 186.383782 90.658722 C 186.383782 40.585802 144.659821 0.00246658 93.191068 0.00246658 Z M 93.191068 0.00246658 " stroke="#c43322" stroke-width="2" stroke-opacity="1" stroke-miterlimit="4"/></g></g><g fill="#c43322" fill-opacity="1"><g transform="translate(32.930927, 106.362271)"><g><path d="M 3.15625 -1.40625 L 2.15625 -0.546875 L 3.140625 0.59375 L 2.828125 0.859375 L 1.84375 -0.28125 L 0.640625 0.75 L 0.3125 0.359375 L 3.140625 -2.0625 L 4.625 -0.328125 L 4.3125 -0.0625 Z M 3.15625 -1.40625 "/></g></g></g><g fill="#c43322" fill-opacity="1"><g transform="translate(36.925401, 110.763115)"><g><path d="M 2.15625 1.453125 L 1.875 1.765625 L 0.34375 0.328125 L 2.890625 -2.375 L 3.25 -2.046875 L 0.984375 0.34375 Z M 2.15625 1.453125 "/></g></g></g><g fill="#c43322" fill-opacity="1"><g transform="translate(41.167331, 114.563666)"><g><path d="M 4.25 0.8125 C 4.082031 1.039062 3.894531 1.222656 3.6875 1.359375 C 3.476562 1.492188 3.257812 1.582031 3.03125 1.625 C 2.800781 1.664062 2.566406 1.65625 2.328125 1.59375 C 2.097656 1.53125 1.875 1.421875 1.65625 1.265625 C 1.4375 1.097656 1.257812 0.910156 1.125 0.703125 C 1 0.492188 0.921875 0.273438 0.890625 0.046875 C 0.867188 -0.171875 0.890625 -0.398438 0.953125 -0.640625 C 1.023438 -0.890625 1.144531 -1.128906 1.3125 -1.359375 C 1.476562 -1.585938 1.664062 -1.765625 1.875 -1.890625 C 2.082031 -2.015625 2.296875 -2.101562 2.515625 -2.15625 C 2.742188 -2.207031 2.976562 -2.203125 3.21875 -2.140625 C 3.457031 -2.078125 3.6875 -1.960938 3.90625 -1.796875 C 4.125 -1.640625 4.296875 -1.457031 4.421875 -1.25 C 4.546875 -1.039062 4.625 -0.816406 4.65625 -0.578125 C 4.6875 -0.347656 4.664062 -0.117188 4.59375 0.109375 C 4.53125 0.347656 4.414062 0.582031 4.25 0.8125 Z M 3.84375 0.515625 C 3.976562 0.328125 4.070312 0.144531 4.125 -0.03125 C 4.175781 -0.21875 4.191406 -0.394531 4.171875 -0.5625 C 4.160156 -0.726562 4.109375 -0.882812 4.015625 -1.03125 C 3.921875 -1.1875 3.796875 -1.320312 3.640625 -1.4375 C 3.484375 -1.550781 3.320312 -1.628906 3.15625 -1.671875 C 2.988281 -1.722656 2.816406 -1.734375 2.640625 -1.703125 C 2.460938 -1.671875 2.296875 -1.601562 2.140625 -1.5 C 1.992188 -1.394531 1.851562 -1.25 1.71875 -1.0625 C 1.582031 -0.875 1.484375 -0.6875 1.421875 -0.5 C 1.359375 -0.3125 1.335938 -0.132812 1.359375 0.03125 C 1.390625 0.195312 1.445312 0.359375 1.53125 0.515625 C 1.625 0.671875 1.75 0.804688 1.90625 0.921875 C 2.0625 1.035156 2.222656 1.113281 2.390625 1.15625 C 2.566406 1.195312 2.738281 1.203125 2.90625 1.171875 C 3.070312 1.140625 3.234375 1.066406 3.390625 0.953125 C 3.554688 0.847656 3.707031 0.703125 3.84375 0.515625 Z M 3.84375 0.515625 "/></g></g></g><g fill="#c43322" fill-opacity="1"><g transform="translate(47.091052, 118.703626)"><g><path d="M 6.421875 -0.796875 L 3.640625 1.9375 L 3.25 1.734375 L 3.734375 -1.21875 C 3.753906 -1.238281 3.765625 -1.265625 3.765625 -1.296875 C 3.773438 -1.335938 3.785156 -1.367188 3.796875 -1.390625 C 3.765625 -1.378906 3.738281 -1.359375 3.71875 -1.328125 C 3.707031 -1.296875 3.6875 -1.273438 3.65625 -1.265625 L 1.484375 0.796875 L 1.09375 0.578125 L 1.8125 -3.25 L 2.1875 -3.046875 C 2.226562 -3.023438 2.253906 -3 2.265625 -2.96875 C 2.285156 -2.9375 2.289062 -2.898438 2.28125 -2.859375 L 1.75 -0.21875 C 1.726562 -0.164062 1.710938 -0.113281 1.703125 -0.0625 C 1.691406 -0.0078125 1.675781 0.0390625 1.65625 0.09375 C 1.695312 0.0507812 1.734375 0.0078125 1.765625 -0.03125 C 1.804688 -0.0820312 1.84375 -0.125 1.875 -0.15625 L 3.859375 -2.015625 C 3.878906 -2.046875 3.910156 -2.0625 3.953125 -2.0625 C 3.992188 -2.070312 4.03125 -2.066406 4.0625 -2.046875 L 4.203125 -1.96875 C 4.242188 -1.945312 4.269531 -1.921875 4.28125 -1.890625 C 4.289062 -1.867188 4.296875 -1.832031 4.296875 -1.78125 L 3.84375 0.90625 C 3.84375 0.945312 3.832031 0.992188 3.8125 1.046875 C 3.800781 1.097656 3.785156 1.148438 3.765625 1.203125 C 3.804688 1.160156 3.84375 1.113281 3.875 1.0625 C 3.90625 1.019531 3.9375 0.988281 3.96875 0.96875 L 5.859375 -0.953125 C 5.890625 -0.972656 5.921875 -0.988281 5.953125 -1 C 5.992188 -1.007812 6.035156 -1 6.078125 -0.96875 Z M 6.421875 -0.796875 "/></g></g></g><g fill="#c43322" fill-opacity="1"><g transform="translate(54.652523, 122.410083)"><g><path d="M 2.734375 0.59375 L 2.59375 0.96875 L 0.4375 0.15625 L 1.734375 -3.328125 L 3.890625 -2.515625 L 3.75 -2.140625 L 2.078125 -2.765625 L 1.640625 -1.609375 L 2.984375 -1.109375 L 2.84375 -0.71875 L 1.5 -1.21875 L 1.0625 -0.03125 Z M 2.734375 0.59375 "/></g></g></g><g fill="#c43322" fill-opacity="1"><g transform="translate(60.348554, 124.346587)"><g><path d="M 1.90625 -1.5 C 2.050781 -1.46875 2.179688 -1.453125 2.296875 -1.453125 C 2.421875 -1.453125 2.523438 -1.476562 2.609375 -1.53125 C 2.703125 -1.582031 2.773438 -1.644531 2.828125 -1.71875 C 2.890625 -1.789062 2.9375 -1.882812 2.96875 -2 C 3.019531 -2.207031 2.984375 -2.382812 2.859375 -2.53125 C 2.742188 -2.675781 2.550781 -2.785156 2.28125 -2.859375 L 1.734375 -2.984375 L 1.390625 -1.625 Z M 3.125 0.765625 L 2.703125 0.671875 C 2.609375 0.640625 2.550781 0.582031 2.53125 0.5 L 1.90625 -1 C 1.882812 -1.050781 1.859375 -1.085938 1.828125 -1.109375 C 1.804688 -1.140625 1.757812 -1.160156 1.6875 -1.171875 L 1.3125 -1.265625 L 0.9375 0.234375 L 0.453125 0.109375 L 1.34375 -3.5 L 2.375 -3.25 C 2.601562 -3.1875 2.796875 -3.109375 2.953125 -3.015625 C 3.109375 -2.929688 3.222656 -2.832031 3.296875 -2.71875 C 3.378906 -2.601562 3.4375 -2.476562 3.46875 -2.34375 C 3.5 -2.21875 3.492188 -2.078125 3.453125 -1.921875 C 3.421875 -1.785156 3.367188 -1.664062 3.296875 -1.5625 C 3.234375 -1.46875 3.148438 -1.382812 3.046875 -1.3125 C 2.953125 -1.25 2.84375 -1.203125 2.71875 -1.171875 C 2.59375 -1.140625 2.453125 -1.125 2.296875 -1.125 C 2.347656 -1.0625 2.390625 -0.988281 2.421875 -0.90625 Z M 3.125 0.765625 "/></g></g></g><g fill="#c43322" fill-opacity="1"><g transform="translate(66.453546, 125.648798)"><g/></g></g><g fill="#c43322" fill-opacity="1"><g transform="translate(70.757502, 126.179113)"><g><path d="M 3.625 -3.578125 L 3.484375 0.140625 L 2.984375 0.109375 L 3.046875 -1.578125 L 1.046875 -1.65625 L 0.984375 0.03125 L 0.46875 0.015625 L 0.609375 -3.703125 L 1.125 -3.6875 L 1.0625 -2.03125 L 3.0625 -1.953125 L 3.125 -3.609375 Z M 3.625 -3.578125 "/></g></g></g><g fill="#c43322" fill-opacity="1"><g transform="translate(77.756522, 126.241024)"><g><path d="M 2.3125 -1.59375 L 1.609375 -3.03125 C 1.585938 -3.070312 1.5625 -3.125 1.53125 -3.1875 C 1.507812 -3.25 1.488281 -3.3125 1.46875 -3.375 C 1.445312 -3.238281 1.421875 -3.117188 1.390625 -3.015625 L 0.9375 -1.46875 Z M 3.484375 -0.3125 L 3.09375 -0.265625 C 3.050781 -0.265625 3.015625 -0.273438 2.984375 -0.296875 C 2.953125 -0.316406 2.925781 -0.34375 2.90625 -0.375 L 2.484375 -1.25 L 0.828125 -1.09375 L 0.5625 -0.171875 C 0.5625 -0.140625 0.546875 -0.109375 0.515625 -0.078125 C 0.484375 -0.0546875 0.445312 -0.0390625 0.40625 -0.03125 L 0.015625 0 L 1.171875 -3.828125 L 1.6875 -3.875 Z M 3.484375 -0.3125 "/></g></g></g><g fill="#c43322" fill-opacity="1"><g transform="translate(84.265584, 125.491885)"><g><path d="M 2.625 -4.375 L 3.40625 -0.734375 L 3.15625 -0.6875 C 3.113281 -0.675781 3.078125 -0.675781 3.046875 -0.6875 C 3.023438 -0.695312 3.003906 -0.710938 2.984375 -0.734375 L 0.28125 -3.015625 C 0.289062 -2.972656 0.300781 -2.929688 0.3125 -2.890625 C 0.320312 -2.847656 0.332031 -2.804688 0.34375 -2.765625 L 0.90625 -0.1875 L 0.453125 -0.09375 L -0.328125 -3.734375 L -0.0625 -3.796875 C -0.0390625 -3.796875 -0.0195312 -3.796875 0 -3.796875 C 0.0078125 -3.796875 0.0195312 -3.789062 0.03125 -3.78125 C 0.0390625 -3.78125 0.0507812 -3.773438 0.0625 -3.765625 C 0.0820312 -3.765625 0.101562 -3.753906 0.125 -3.734375 L 2.828125 -1.453125 C 2.804688 -1.503906 2.789062 -1.550781 2.78125 -1.59375 C 2.769531 -1.632812 2.757812 -1.664062 2.75 -1.6875 L 2.203125 -4.28125 Z M 2.625 -4.375 "/></g></g></g><g fill="#c43322" fill-opacity="1"><g transform="translate(91.068855, 123.815271)"><g><path d="M 2.859375 -3 C 2.953125 -2.738281 2.992188 -2.484375 2.984375 -2.234375 C 2.984375 -1.984375 2.929688 -1.753906 2.828125 -1.546875 C 2.734375 -1.347656 2.59375 -1.164062 2.40625 -1 C 2.226562 -0.84375 2.007812 -0.71875 1.75 -0.625 L 0.4375 -0.15625 L -0.8125 -3.65625 L 0.5 -4.125 C 0.757812 -4.21875 1.007812 -4.257812 1.25 -4.25 C 1.5 -4.25 1.722656 -4.195312 1.921875 -4.09375 C 2.128906 -3.988281 2.3125 -3.84375 2.46875 -3.65625 C 2.632812 -3.476562 2.765625 -3.257812 2.859375 -3 Z M 2.375 -2.828125 C 2.300781 -3.046875 2.203125 -3.226562 2.078125 -3.375 C 1.960938 -3.519531 1.828125 -3.628906 1.671875 -3.703125 C 1.523438 -3.773438 1.363281 -3.816406 1.1875 -3.828125 C 1.007812 -3.835938 0.828125 -3.8125 0.640625 -3.75 L -0.1875 -3.453125 L 0.78125 -0.703125 L 1.609375 -1 C 1.796875 -1.0625 1.957031 -1.15625 2.09375 -1.28125 C 2.226562 -1.40625 2.328125 -1.539062 2.390625 -1.6875 C 2.460938 -1.84375 2.492188 -2.015625 2.484375 -2.203125 C 2.484375 -2.398438 2.445312 -2.609375 2.375 -2.828125 Z M 2.375 -2.828125 "/></g></g></g><g fill="#c43322" fill-opacity="1"><g transform="translate(97.603496, 121.287105)"><g><path d="M 2.125 -5.3125 L 3.84375 -2.015625 L 3.46875 -1.8125 L 2.203125 -4.234375 C 2.191406 -4.265625 2.175781 -4.296875 2.15625 -4.328125 C 2.132812 -4.367188 2.113281 -4.40625 2.09375 -4.4375 L 2.046875 -1.796875 C 2.035156 -1.703125 1.992188 -1.640625 1.921875 -1.609375 L 1.875 -1.578125 C 1.800781 -1.535156 1.726562 -1.539062 1.65625 -1.59375 L -0.578125 -3.0625 C -0.523438 -2.976562 -0.484375 -2.90625 -0.453125 -2.84375 L 0.8125 -0.421875 L 0.421875 -0.21875 L -1.296875 -3.515625 L -0.96875 -3.6875 C -0.9375 -3.707031 -0.90625 -3.71875 -0.875 -3.71875 C -0.84375 -3.71875 -0.804688 -3.707031 -0.765625 -3.6875 L 1.40625 -2.25 C 1.445312 -2.226562 1.488281 -2.203125 1.53125 -2.171875 C 1.570312 -2.140625 1.609375 -2.109375 1.640625 -2.078125 C 1.640625 -2.128906 1.632812 -2.175781 1.625 -2.21875 C 1.625 -2.269531 1.625 -2.316406 1.625 -2.359375 L 1.6875 -4.984375 C 1.6875 -5.015625 1.695312 -5.039062 1.71875 -5.0625 C 1.738281 -5.09375 1.765625 -5.117188 1.796875 -5.140625 Z M 2.125 -5.3125 "/></g></g></g><g fill="#c43322" fill-opacity="1"><g transform="translate(104.45782, 117.424989)"><g><path d="M 1.203125 -2.546875 L -0.15625 -3.4375 C -0.1875 -3.457031 -0.226562 -3.488281 -0.28125 -3.53125 C -0.332031 -3.570312 -0.382812 -3.613281 -0.4375 -3.65625 C -0.382812 -3.519531 -0.347656 -3.40625 -0.328125 -3.3125 L 0.078125 -1.734375 Z M 2.859375 -2.015625 L 2.53125 -1.796875 C 2.5 -1.773438 2.460938 -1.757812 2.421875 -1.75 C 2.390625 -1.75 2.359375 -1.769531 2.328125 -1.8125 L 1.53125 -2.328125 L 0.15625 -1.359375 L 0.390625 -0.4375 C 0.398438 -0.40625 0.398438 -0.367188 0.390625 -0.328125 C 0.378906 -0.285156 0.359375 -0.253906 0.328125 -0.234375 L 0.015625 -0.015625 L -0.921875 -3.890625 L -0.5 -4.1875 Z M 2.859375 -2.015625 "/></g></g></g><g fill="#c43322" fill-opacity="1"><g transform="translate(109.704147, 113.501433)"><g><path d="M 1.484375 -3.875 C 1.671875 -3.664062 1.804688 -3.445312 1.890625 -3.21875 C 1.984375 -2.988281 2.023438 -2.757812 2.015625 -2.53125 C 2.003906 -2.3125 1.941406 -2.085938 1.828125 -1.859375 C 1.722656 -1.640625 1.570312 -1.4375 1.375 -1.25 L 0.34375 -0.3125 L -2.171875 -3.0625 L -1.140625 -4 C -0.941406 -4.1875 -0.726562 -4.320312 -0.5 -4.40625 C -0.269531 -4.5 -0.0390625 -4.535156 0.1875 -4.515625 C 0.414062 -4.503906 0.640625 -4.445312 0.859375 -4.34375 C 1.078125 -4.238281 1.285156 -4.082031 1.484375 -3.875 Z M 1.109375 -3.53125 C 0.953125 -3.695312 0.789062 -3.820312 0.625 -3.90625 C 0.457031 -4 0.285156 -4.050781 0.109375 -4.0625 C -0.0546875 -4.082031 -0.222656 -4.054688 -0.390625 -3.984375 C -0.554688 -3.921875 -0.710938 -3.820312 -0.859375 -3.6875 L -1.515625 -3.109375 L 0.4375 -0.96875 L 1.09375 -1.546875 C 1.238281 -1.679688 1.347656 -1.832031 1.421875 -2 C 1.503906 -2.164062 1.546875 -2.332031 1.546875 -2.5 C 1.554688 -2.664062 1.523438 -2.835938 1.453125 -3.015625 C 1.378906 -3.191406 1.265625 -3.363281 1.109375 -3.53125 Z M 1.109375 -3.53125 "/></g></g></g><g fill="#c43322" fill-opacity="1"><g transform="translate(114.704662, 108.638589)"><g><path d="M 1.484375 -2.359375 L 1.796875 -2.09375 L 0.3125 -0.359375 L -2.515625 -2.78125 L -1.03125 -4.515625 L -0.71875 -4.25 L -1.875 -2.90625 L -0.9375 -2.109375 L 0 -3.203125 L 0.3125 -2.9375 L -0.625 -1.84375 L 0.328125 -1.015625 Z M 1.484375 -2.359375 "/></g></g></g><g clip-path="url(#00ca9fd9da)"><path fill="#c43322" d="M 75.886719 116.382812 C 70.207031 116.382812 64.699219 115.269531 59.507812 113.078125 C 54.5 110.957031 50 107.925781 46.132812 104.058594 C 42.269531 100.195312 39.234375 95.695312 37.117188 90.683594 C 34.921875 85.496094 33.808594 79.984375 33.808594 74.304688 C 33.808594 68.625 34.921875 63.113281 37.117188 57.925781 C 39.234375 52.914062 42.269531 48.414062 46.132812 44.550781 C 50 40.6875 54.5 37.652344 59.507812 35.535156 C 64.699219 33.339844 70.207031 32.226562 75.886719 32.226562 C 81.570312 32.226562 87.078125 33.339844 92.265625 35.535156 C 97.277344 37.652344 101.777344 40.6875 105.640625 44.550781 C 109.507812 48.414062 112.539062 52.914062 114.660156 57.925781 C 116.855469 63.113281 117.96875 68.625 117.96875 74.304688 C 117.96875 81.46875 116.132812 88.542969 112.667969 94.761719 C 112.582031 94.914062 112.390625 94.96875 112.238281 94.886719 C 112.085938 94.800781 112.03125 94.609375 112.117188 94.457031 C 115.53125 88.332031 117.335938 81.363281 117.335938 74.304688 C 117.335938 51.449219 98.742188 32.855469 75.886719 32.855469 C 53.035156 32.855469 34.441406 51.449219 34.441406 74.304688 C 34.441406 97.160156 53.035156 115.753906 75.886719 115.753906 C 81 115.753906 85.988281 114.835938 90.714844 113.023438 C 90.878906 112.960938 91.058594 113.042969 91.121094 113.207031 C 91.183594 113.367188 91.105469 113.550781 90.941406 113.613281 C 86.140625 115.449219 81.074219 116.382812 75.886719 116.382812 Z M 75.886719 116.382812 " fill-opacity="1" fill-rule="nonzero"/></g><g clip-path="url(#01bda729ee)"><path fill="#c43322" d="M 48.457031 43.128906 C 48.425781 43.128906 48.390625 43.125 48.355469 43.113281 C 48.207031 43.058594 48.117188 42.90625 48.148438 42.75 C 48.632812 40.386719 49.078125 39.003906 50.308594 37.539062 C 51.046875 36.664062 51.964844 35.941406 52.773438 35.332031 C 54.808594 33.785156 56.960938 32.34375 59.167969 31.046875 L 59.484375 30.859375 C 60.453125 30.292969 61.453125 29.707031 62.253906 28.933594 C 63.035156 28.175781 63.632812 27.234375 63.984375 26.207031 C 64.035156 26.054688 64.199219 25.964844 64.355469 26.003906 C 64.515625 26.042969 64.617188 26.195312 64.59375 26.359375 C 64.300781 28.21875 63.558594 30.007812 62.449219 31.535156 C 60.78125 33.824219 58.34375 35.445312 55.957031 36.859375 C 55.757812 36.976562 55.5625 37.09375 55.363281 37.210938 C 53.277344 38.433594 51.125 39.699219 49.703125 41.617188 C 49.613281 41.734375 49.515625 41.855469 49.414062 41.984375 C 49.160156 42.308594 48.894531 42.640625 48.742188 42.953125 C 48.6875 43.0625 48.574219 43.128906 48.457031 43.128906 Z M 50.789062 37.945312 C 49.921875 38.976562 49.480469 39.945312 49.113281 41.347656 C 49.140625 41.3125 49.167969 41.277344 49.195312 41.242188 C 50.695312 39.21875 52.90625 37.921875 55.042969 36.667969 C 55.242188 36.550781 55.441406 36.433594 55.636719 36.316406 C 57.964844 34.9375 60.339844 33.359375 61.941406 31.164062 C 62.484375 30.417969 62.9375 29.601562 63.28125 28.746094 C 63.097656 28.96875 62.902344 29.183594 62.695312 29.386719 C 61.835938 30.214844 60.800781 30.820312 59.800781 31.402344 L 59.484375 31.589844 C 57.300781 32.875 55.167969 34.300781 53.152344 35.832031 C 52.339844 36.449219 51.488281 37.117188 50.789062 37.945312 Z M 50.789062 37.945312 " fill-opacity="1" fill-rule="nonzero"/></g><path fill="#c43322" d="M 45.917969 45.582031 C 45.828125 45.582031 45.738281 45.539062 45.675781 45.464844 C 45.574219 45.339844 45.582031 45.164062 45.691406 45.050781 C 47.347656 43.296875 48.457031 42.355469 50.273438 41.765625 C 51.363281 41.410156 52.527344 41.28125 53.535156 41.1875 C 56.078125 40.953125 58.667969 40.863281 61.226562 40.929688 L 61.59375 40.9375 C 62.714844 40.96875 63.875 41 64.96875 40.765625 C 66.03125 40.535156 67.035156 40.050781 67.875 39.363281 C 68 39.261719 68.183594 39.269531 68.296875 39.386719 C 68.414062 39.503906 68.417969 39.691406 68.3125 39.8125 C 67.078125 41.242188 65.503906 42.367188 63.757812 43.078125 C 61.132812 44.140625 58.203125 44.230469 55.429688 44.171875 C 55.203125 44.167969 54.972656 44.160156 54.738281 44.15625 C 52.324219 44.09375 49.828125 44.027344 47.605469 44.90625 C 47.46875 44.960938 47.320312 45.011719 47.167969 45.070312 C 46.78125 45.207031 46.382812 45.351562 46.085938 45.535156 C 46.03125 45.566406 45.976562 45.582031 45.917969 45.582031 Z M 50.46875 42.363281 C 49.1875 42.78125 48.300781 43.371094 47.25 44.367188 C 47.292969 44.351562 47.335938 44.335938 47.375 44.320312 C 49.714844 43.394531 52.277344 43.460938 54.757812 43.523438 C 54.988281 43.53125 55.214844 43.535156 55.445312 43.542969 C 58.152344 43.601562 61.003906 43.515625 63.519531 42.496094 C 64.378906 42.148438 65.191406 41.691406 65.9375 41.148438 C 65.664062 41.242188 65.382812 41.320312 65.101562 41.382812 C 63.933594 41.632812 62.738281 41.597656 61.578125 41.566406 L 61.214844 41.558594 C 58.679688 41.496094 56.113281 41.582031 53.59375 41.816406 C 52.578125 41.910156 51.496094 42.03125 50.46875 42.363281 Z M 50.46875 42.363281 " fill-opacity="1" fill-rule="nonzero"/><g clip-path="url(#7b5f2e71bb)"><path fill="#c43322" d="M 34.222656 72.289062 C 34.125 72.289062 34.03125 72.246094 33.972656 72.167969 C 33.164062 71.113281 32.578125 70.21875 32.132812 69.347656 C 30.832031 66.808594 30.433594 63.90625 30.210938 61.398438 C 30.15625 60.773438 30.109375 60.136719 30.0625 59.523438 C 29.910156 57.492188 29.757812 55.394531 29.289062 53.398438 C 29.253906 53.257812 29.320312 53.109375 29.449219 53.042969 C 29.582031 52.980469 29.738281 53.007812 29.832031 53.117188 C 31.941406 55.550781 33.316406 57.914062 34.039062 60.34375 C 34.863281 63.121094 34.804688 66.039062 34.664062 68.273438 C 34.589844 69.421875 34.554688 70.496094 34.554688 71.558594 C 34.554688 71.710938 34.550781 71.855469 34.535156 72.003906 C 34.523438 72.132812 34.433594 72.242188 34.3125 72.277344 C 34.28125 72.285156 34.25 72.289062 34.222656 72.289062 Z M 32.691406 69.058594 C 33.015625 69.6875 33.414062 70.335938 33.925781 71.050781 C 33.9375 70.140625 33.972656 69.210938 34.035156 68.234375 C 34.171875 66.054688 34.230469 63.207031 33.433594 60.523438 C 32.832031 58.5 31.753906 56.519531 30.152344 54.492188 C 30.441406 56.148438 30.566406 57.835938 30.691406 59.476562 C 30.734375 60.089844 30.78125 60.722656 30.839844 61.34375 C 31.054688 63.789062 31.441406 66.617188 32.691406 69.058594 Z M 32.691406 69.058594 " fill-opacity="1" fill-rule="nonzero"/></g><path fill="#c43322" d="M 34.644531 70.019531 C 34.617188 70.019531 34.585938 70.015625 34.558594 70.007812 C 34.414062 69.964844 34.320312 69.828125 34.332031 69.683594 C 34.367188 69.230469 34.441406 68.742188 34.554688 68.195312 C 34.804688 66.992188 35.101562 66.03125 35.496094 65.167969 C 36.515625 62.925781 38.296875 61.144531 40.015625 59.421875 C 41.800781 57.636719 43.648438 55.789062 44.566406 53.464844 C 44.617188 53.335938 44.746094 53.257812 44.882812 53.269531 C 45.023438 53.28125 45.136719 53.378906 45.164062 53.515625 C 45.714844 56.054688 44.820312 59.03125 42.714844 61.6875 C 41.535156 63.167969 40.113281 64.453125 38.738281 65.695312 C 38.023438 66.339844 37.285156 67.003906 36.597656 67.6875 C 35.855469 68.417969 35.289062 69.0625 34.9375 69.828125 C 34.933594 69.835938 34.925781 69.847656 34.921875 69.855469 C 34.867188 69.957031 34.757812 70.019531 34.644531 70.019531 Z M 44.6875 54.703125 C 43.648438 56.679688 42.03125 58.296875 40.460938 59.867188 C 38.78125 61.550781 37.042969 63.289062 36.066406 65.429688 C 35.699219 66.242188 35.414062 67.152344 35.175781 68.296875 C 35.480469 67.921875 35.816406 67.570312 36.152344 67.238281 C 36.855469 66.546875 37.597656 65.875 38.316406 65.226562 C 39.671875 64 41.074219 62.734375 42.21875 61.292969 C 43.921875 59.15625 44.789062 56.808594 44.6875 54.703125 Z M 44.6875 54.703125 " fill-opacity="1" fill-rule="nonzero"/><path fill="#c43322" d="M 35.34375 63.351562 C 35.328125 63.351562 35.316406 63.347656 35.300781 63.347656 C 35.15625 63.328125 35.046875 63.210938 35.03125 63.066406 C 34.371094 56.230469 35.421875 49.269531 38.066406 42.945312 C 38.128906 42.800781 38.28125 42.722656 38.433594 42.757812 C 38.582031 42.792969 38.683594 42.933594 38.671875 43.089844 C 38.558594 44.570312 38.589844 46.089844 38.621094 47.5625 C 38.648438 49.085938 38.683594 50.660156 38.554688 52.207031 C 38.261719 55.785156 37.175781 59.167969 35.636719 63.148438 C 35.589844 63.269531 35.472656 63.351562 35.34375 63.351562 Z M 37.964844 44.933594 C 36.023438 50.25 35.199219 55.957031 35.546875 61.613281 C 36.800781 58.238281 37.671875 55.261719 37.925781 52.15625 C 38.050781 50.636719 38.019531 49.082031 37.988281 47.574219 C 37.972656 46.707031 37.953125 45.820312 37.964844 44.933594 Z M 37.964844 44.933594 " fill-opacity="1" fill-rule="nonzero"/><path fill="#c43322" d="M 38.300781 55.675781 C 38.230469 55.675781 38.160156 55.652344 38.101562 55.605469 C 37.984375 55.511719 37.949219 55.347656 38.019531 55.210938 C 38.425781 54.449219 39.039062 53.6875 39.949219 52.816406 C 43.824219 49.097656 48.628906 46.46875 53.847656 45.207031 C 53.984375 45.175781 54.125 45.234375 54.195312 45.355469 C 54.261719 45.480469 54.242188 45.632812 54.144531 45.734375 C 52.121094 47.824219 50.027344 49.984375 47.386719 51.402344 C 46.300781 51.988281 45.042969 52.464844 43.832031 52.921875 C 41.917969 53.644531 39.941406 54.394531 38.5 55.601562 C 38.441406 55.652344 38.371094 55.675781 38.300781 55.675781 Z M 40.386719 53.269531 C 40.085938 53.558594 39.820312 53.832031 39.585938 54.09375 C 40.832031 53.382812 42.234375 52.851562 43.609375 52.332031 C 44.859375 51.859375 46.035156 51.414062 47.089844 50.847656 C 49.308594 49.652344 51.15625 47.894531 52.90625 46.101562 C 48.21875 47.425781 43.90625 49.890625 40.386719 53.269531 Z M 40.386719 53.269531 " fill-opacity="1" fill-rule="nonzero"/><path fill="#c43322" d="M 40.136719 52.652344 C 40.117188 52.652344 40.09375 52.648438 40.074219 52.644531 C 39.960938 52.621094 39.875 52.539062 39.839844 52.433594 C 39.644531 51.832031 39.566406 51.152344 39.609375 50.46875 C 39.683594 49.289062 40.085938 48.179688 40.503906 47.15625 C 40.984375 45.988281 41.53125 44.828125 42.0625 43.707031 C 42.652344 42.464844 43.261719 41.175781 43.773438 39.878906 C 44.722656 37.476562 45.078125 32.234375 45.082031 32.179688 C 45.089844 32.023438 45.21875 31.894531 45.375 31.886719 C 45.535156 31.878906 45.675781 31.988281 45.703125 32.144531 C 45.761719 32.4375 47.046875 39.378906 46.183594 42.796875 C 45.128906 46.945312 41.769531 51 40.371094 52.546875 C 40.3125 52.617188 40.226562 52.652344 40.136719 52.652344 Z M 40.238281 50.507812 C 40.210938 50.910156 40.234375 51.304688 40.300781 51.679688 C 41.820312 49.925781 44.640625 46.308594 45.570312 42.640625 C 46.089844 40.601562 45.78125 37.109375 45.46875 34.742188 C 45.261719 36.480469 44.910156 38.714844 44.359375 40.109375 C 43.839844 41.425781 43.226562 42.722656 42.632812 43.976562 C 42.105469 45.089844 41.5625 46.242188 41.089844 47.398438 C 40.6875 48.371094 40.308594 49.421875 40.238281 50.507812 Z M 40.238281 50.507812 " fill-opacity="1" fill-rule="nonzero"/><path fill="#c43322" d="M 95.089844 111.765625 C 95.089844 112.027344 95 112.25 94.816406 112.433594 C 94.628906 112.617188 94.40625 112.710938 94.148438 112.710938 C 93.886719 112.710938 93.664062 112.617188 93.480469 112.433594 C 93.292969 112.25 93.203125 112.027344 93.203125 111.765625 C 93.203125 111.503906 93.292969 111.28125 93.480469 111.097656 C 93.664062 110.914062 93.886719 110.820312 94.148438 110.820312 C 94.40625 110.820312 94.628906 110.914062 94.816406 111.097656 C 95 111.28125 95.089844 111.503906 95.089844 111.765625 Z M 95.089844 111.765625 " fill-opacity="1" fill-rule="nonzero"/><path fill="#c43322" d="M 101.320312 108.027344 C 101.320312 108.289062 101.226562 108.511719 101.042969 108.695312 C 100.859375 108.878906 100.636719 108.972656 100.375 108.972656 C 100.113281 108.972656 99.890625 108.878906 99.707031 108.695312 C 99.523438 108.511719 99.429688 108.289062 99.429688 108.027344 C 99.429688 107.765625 99.523438 107.542969 99.707031 107.359375 C 99.890625 107.175781 100.113281 107.082031 100.375 107.082031 C 100.636719 107.082031 100.859375 107.175781 101.042969 107.359375 C 101.226562 107.542969 101.320312 107.765625 101.320312 108.027344 Z M 101.320312 108.027344 " fill-opacity="1" fill-rule="nonzero"/><path fill="#c43322" d="M 106.804688 103.261719 C 106.804688 103.523438 106.710938 103.746094 106.527344 103.929688 C 106.34375 104.113281 106.121094 104.207031 105.859375 104.207031 C 105.597656 104.207031 105.375 104.113281 105.191406 103.929688 C 105.007812 103.746094 104.914062 103.523438 104.914062 103.261719 C 104.914062 103 105.007812 102.78125 105.191406 102.59375 C 105.375 102.410156 105.597656 102.316406 105.859375 102.316406 C 106.121094 102.316406 106.34375 102.410156 106.527344 102.59375 C 106.710938 102.78125 106.804688 103 106.804688 103.261719 Z M 106.804688 103.261719 " fill-opacity="1" fill-rule="nonzero"/><path fill="#c43322" d="M 111.375 97.617188 C 111.375 97.878906 111.285156 98.101562 111.097656 98.285156 C 110.914062 98.46875 110.691406 98.5625 110.429688 98.5625 C 110.171875 98.5625 109.949219 98.46875 109.765625 98.285156 C 109.578125 98.101562 109.488281 97.878906 109.488281 97.617188 C 109.488281 97.359375 109.578125 97.136719 109.765625 96.949219 C 109.949219 96.765625 110.171875 96.675781 110.429688 96.675781 C 110.691406 96.675781 110.914062 96.765625 111.097656 96.949219 C 111.285156 97.136719 111.375 97.359375 111.375 97.617188 Z M 111.375 97.617188 " fill-opacity="1" fill-rule="nonzero"/><g clip-path="url(#acab75d21a)"><g clip-path="url(#c1cb5ffbe5)"><g clip-path="url(#324972e4b7)"><path fill="#c43322" d="M 56.535156 76.21875 C 56.863281 75.847656 56.730469 75.390625 56.523438 74.980469 C 56.246094 74.4375 55.898438 73.921875 55.578125 73.398438 C 55.511719 73.28125 55.425781 73.183594 55.339844 73.050781 C 55.769531 72.785156 56.183594 72.804688 56.605469 72.96875 C 57.242188 73.21875 57.765625 73.636719 58.179688 74.160156 C 59.480469 75.785156 60.542969 77.5625 61.503906 79.402344 C 61.945312 80.253906 62.375 81.097656 62.832031 81.949219 C 62.90625 82.09375 63.03125 82.230469 63.167969 82.316406 C 64.230469 82.992188 65.300781 83.65625 66.363281 84.332031 C 66.902344 84.667969 67.417969 85.019531 67.945312 85.359375 C 68.046875 85.421875 68.175781 85.4375 68.292969 85.476562 C 68.316406 85.429688 68.328125 85.394531 68.351562 85.347656 C 67.976562 85.15625 67.605469 84.980469 67.230469 84.792969 C 67.257812 84.730469 67.289062 84.671875 67.328125 84.609375 C 67.664062 84.609375 68.003906 84.589844 68.34375 84.613281 C 68.429688 84.617188 68.515625 84.761719 68.578125 84.855469 C 69.121094 85.65625 69.660156 86.464844 70.210938 87.261719 C 70.273438 87.355469 70.363281 87.421875 70.445312 87.5 C 70.476562 87.484375 70.511719 87.457031 70.539062 87.4375 C 70.496094 87.328125 70.460938 87.21875 70.398438 87.125 C 70.082031 86.664062 69.765625 86.203125 69.441406 85.757812 C 68.511719 84.449219 67.867188 83.015625 67.558594 81.433594 C 67.144531 79.3125 66.40625 77.304688 65.507812 75.355469 C 65.429688 75.1875 65.355469 75.03125 65.265625 74.867188 C 65.730469 74.433594 65.828125 74.035156 65.574219 73.410156 C 65.414062 73.015625 65.191406 72.632812 64.976562 72.191406 C 65.140625 72.210938 65.292969 72.222656 65.433594 72.257812 C 66.21875 72.453125 66.75 72.972656 67.183594 73.632812 C 68.089844 75.03125 68.695312 76.582031 69.359375 78.101562 C 69.894531 79.332031 70.402344 80.578125 70.988281 81.789062 C 71.554688 82.960938 72.410156 83.886719 73.554688 84.53125 C 73.960938 84.757812 74.339844 85.019531 74.742188 85.234375 C 75.046875 85.394531 75.226562 85.582031 75.121094 85.949219 C 75.097656 86.03125 75.128906 86.121094 75.128906 86.21875 C 75.171875 86.230469 75.214844 86.230469 75.261719 86.242188 C 75.304688 86.09375 75.367188 85.941406 75.375 85.777344 C 75.386719 85.582031 75.46875 85.5 75.65625 85.4375 C 76.179688 85.246094 76.691406 85.027344 77.203125 84.800781 C 78.554688 84.171875 79.886719 83.507812 81.242188 82.890625 C 81.59375 82.726562 82.011719 82.714844 82.390625 82.628906 C 82.390625 82.578125 82.390625 82.535156 82.390625 82.480469 C 82.28125 82.472656 82.152344 82.414062 82.058594 82.445312 C 81.3125 82.679688 80.535156 82.871094 79.828125 83.195312 C 78.640625 83.734375 77.484375 84.359375 76.332031 84.964844 C 75.714844 85.292969 75.144531 85.308594 74.554688 84.867188 C 74.039062 84.480469 73.460938 84.199219 72.9375 83.824219 C 71.867188 83.066406 71.296875 81.917969 70.710938 80.761719 C 71.636719 80.65625 72.515625 80.574219 73.386719 80.472656 C 75.382812 80.234375 77.371094 80.148438 79.359375 80.429688 C 81.050781 80.667969 82.695312 81.089844 84.210938 81.878906 C 84.785156 82.175781 85.363281 82.515625 85.863281 82.925781 C 89.453125 85.824219 93.292969 88.367188 97.171875 90.847656 C 97.871094 91.296875 98.558594 91.785156 99.253906 92.25 C 99.367188 92.324219 99.503906 92.359375 99.625 92.417969 C 99.648438 92.378906 99.667969 92.332031 99.695312 92.292969 C 99.589844 92.21875 99.5 92.144531 99.398438 92.066406 C 96.992188 90.476562 94.558594 88.933594 92.1875 87.289062 C 90.066406 85.820312 88.039062 84.222656 85.972656 82.6875 C 84.621094 81.671875 83.09375 81.042969 81.472656 80.621094 C 78.9375 79.960938 76.371094 79.914062 73.792969 80.210938 C 72.902344 80.320312 72.007812 80.382812 71.117188 80.5 C 70.71875 80.554688 70.53125 80.421875 70.371094 80.035156 C 69.738281 78.460938 69.089844 76.898438 68.386719 75.355469 C 68.054688 74.621094 67.625 73.925781 67.1875 73.246094 C 66.683594 72.46875 65.9375 72.050781 65.007812 71.949219 C 64.84375 71.929688 64.667969 71.808594 64.523438 71.699219 C 64.300781 71.519531 64.121094 71.179688 63.800781 71.335938 C 63.457031 71.507812 63.582031 71.878906 63.671875 72.152344 C 63.882812 72.710938 64.089844 73.269531 64.382812 73.777344 C 65.453125 75.648438 66.269531 77.625 66.878906 79.683594 C 66.914062 79.804688 66.929688 79.929688 66.972656 80.125 C 66.785156 80.046875 66.652344 79.988281 66.515625 79.945312 C 65.09375 79.453125 63.703125 78.859375 62.25 78.527344 C 61.457031 78.34375 60.992188 78.035156 60.605469 77.34375 C 59.996094 76.269531 59.261719 75.273438 58.558594 74.261719 C 58.125 73.65625 57.566406 73.171875 56.882812 72.847656 C 56.375 72.597656 55.871094 72.558594 55.335938 72.78125 C 55.238281 72.824219 55.109375 72.765625 54.984375 72.75 C 54.808594 72.722656 54.558594 72.625 54.460938 72.710938 C 54.359375 72.796875 54.3125 73.078125 54.378906 73.226562 C 54.550781 73.675781 54.761719 74.113281 55.011719 74.523438 C 55.882812 75.941406 56.8125 77.3125 57.640625 78.738281 C 58.738281 80.625 59.5625 82.644531 60.269531 84.714844 C 60.503906 85.394531 60.917969 85.921875 61.511719 86.320312 C 62.222656 86.804688 62.929688 87.296875 63.648438 87.765625 C 64.757812 88.507812 65.875 89.234375 66.972656 89.976562 C 67.96875 90.648438 68.9375 91.34375 70.105469 91.746094 C 69.449219 92.0625 68.28125 91.992188 67.492188 91.589844 C 66.546875 91.105469 65.601562 90.609375 64.644531 90.136719 C 62.753906 89.21875 60.859375 88.335938 58.972656 87.429688 C 58.324219 87.128906 57.675781 86.828125 57.042969 86.488281 C 56.8125 86.367188 56.554688 86.175781 56.433594 85.953125 C 54.859375 83.222656 52.953125 80.734375 50.886719 78.367188 C 50.871094 78.351562 50.859375 78.332031 50.839844 78.292969 C 51.242188 77.816406 51.070312 77.328125 50.765625 76.90625 C 50.320312 76.304688 49.816406 75.753906 49.304688 75.144531 C 49.546875 74.820312 49.933594 74.707031 50.378906 74.769531 C 51.082031 74.878906 51.652344 75.226562 52.128906 75.738281 C 53.125 76.804688 54.101562 77.878906 55.070312 78.960938 C 56.023438 80.027344 56.929688 81.136719 57.898438 82.175781 C 58.335938 82.644531 58.867188 83.011719 59.363281 83.410156 C 59.441406 83.480469 59.558594 83.511719 59.664062 83.550781 C 59.6875 83.523438 59.714844 83.488281 59.738281 83.460938 C 59.679688 83.386719 59.640625 83.296875 59.566406 83.25 C 58.609375 82.710938 57.941406 81.875 57.242188 81.078125 C 55.675781 79.328125 54.128906 77.558594 52.5625 75.808594 C 52.121094 75.300781 51.597656 74.882812 50.957031 74.65625 C 50.28125 74.425781 49.671875 74.394531 49.136719 74.921875 C 49.085938 74.976562 48.957031 74.972656 48.867188 74.957031 C 48.753906 74.9375 48.640625 74.867188 48.53125 74.847656 C 48.25 74.800781 48.105469 74.984375 48.214844 75.238281 C 48.285156 75.40625 48.382812 75.558594 48.5 75.707031 C 49.742188 77.257812 51.027344 78.769531 52.234375 80.351562 C 53.375 81.839844 54.433594 83.390625 55.527344 84.910156 C 55.601562 85.011719 55.648438 85.132812 55.75 85.304688 C 55.289062 85.15625 54.898438 85.003906 54.5 84.90625 C 53.179688 84.566406 51.859375 84.207031 50.511719 83.949219 C 49.902344 83.832031 49.238281 83.890625 48.609375 83.980469 C 47.953125 84.082031 47.519531 84.53125 47.277344 85.15625 C 47.242188 85.238281 47.199219 85.332031 47.136719 85.402344 C 46.878906 85.640625 46.882812 85.8125 47.238281 85.917969 C 47.96875 86.148438 48.707031 86.320312 49.441406 86.519531 C 49.863281 86.644531 50.3125 86.71875 50.726562 86.886719 C 52.566406 87.609375 54.398438 88.367188 56.042969 89.476562 C 56.800781 89.992188 57.574219 90.179688 58.453125 90.164062 C 60.183594 90.132812 61.917969 90.132812 63.648438 90.160156 C 63.992188 90.160156 64.371094 90.261719 64.695312 90.40625 C 65.507812 90.78125 66.316406 91.175781 67.089844 91.625 C 68.066406 92.1875 69.074219 92.261719 70.144531 92.03125 C 72.707031 91.476562 75.289062 91.152344 77.921875 91.113281 C 79.09375 91.09375 80.242188 91.125 81.375 91.386719 C 82.964844 91.753906 84.28125 92.644531 85.558594 93.574219 C 87.449219 94.933594 89.058594 96.601562 90.617188 98.3125 C 92.457031 100.351562 94.238281 102.445312 96.019531 104.550781 C 96.542969 105.167969 96.933594 105.882812 97.390625 106.558594 C 97.441406 106.644531 97.492188 106.730469 97.5625 106.792969 C 97.601562 106.824219 97.691406 106.847656 97.71875 106.820312 C 97.761719 106.78125 97.808594 106.695312 97.789062 106.644531 C 97.753906 106.542969 97.691406 106.449219 97.628906 106.355469 C 96.417969 104.34375 94.898438 102.558594 93.347656 100.816406 C 91.421875 98.65625 89.460938 96.515625 87.304688 94.578125 C 86.074219 93.464844 84.726562 92.472656 83.238281 91.726562 C 81.484375 90.847656 79.609375 90.59375 77.65625 90.835938 C 76.808594 90.941406 75.9375 90.90625 75.082031 90.992188 C 73.839844 91.132812 72.609375 91.324219 71.378906 91.515625 C 70.773438 91.601562 70.191406 91.546875 69.644531 91.265625 C 69.085938 90.976562 68.523438 90.675781 68 90.339844 C 66.265625 89.203125 64.539062 88.058594 62.824219 86.898438 C 62.292969 86.539062 61.761719 86.179688 61.28125 85.753906 C 61.003906 85.515625 60.765625 85.167969 60.617188 84.820312 C 59.988281 83.363281 59.46875 81.859375 58.792969 80.429688 C 58.109375 79.015625 57.296875 77.648438 56.535156 76.21875 Z M 47.472656 85.351562 C 47.625 84.660156 48.222656 84.132812 49.039062 84.125 C 49.773438 84.117188 50.523438 84.160156 51.230469 84.332031 C 52.683594 84.675781 54.121094 85.140625 55.570312 85.515625 C 55.878906 85.589844 55.984375 85.78125 56.148438 85.984375 C 56.378906 86.257812 56.601562 86.585938 56.914062 86.734375 C 58.960938 87.734375 61.023438 88.691406 63.085938 89.65625 C 63.203125 89.707031 63.316406 89.777344 63.5 89.878906 C 63.34375 89.890625 63.257812 89.910156 63.183594 89.914062 C 61.765625 89.921875 60.347656 89.894531 58.933594 89.949219 C 57.8125 89.988281 56.828125 89.78125 55.859375 89.128906 C 54.203125 88.011719 52.34375 87.292969 50.492188 86.550781 C 50.359375 86.492188 50.171875 86.457031 50.113281 86.351562 C 49.863281 85.941406 49.453125 85.835938 49.050781 85.71875 C 48.546875 85.582031 48.027344 85.476562 47.472656 85.351562 Z M 61.375 78.652344 C 61.398438 78.617188 61.414062 78.589844 61.4375 78.554688 C 61.921875 78.652344 62.417969 78.707031 62.886719 78.875 C 64.191406 79.328125 65.476562 79.824219 66.773438 80.289062 C 66.992188 80.371094 67.097656 80.496094 67.144531 80.722656 C 67.335938 81.503906 67.527344 82.28125 67.746094 83.042969 C 67.847656 83.40625 68.007812 83.75 68.175781 84.175781 C 67.550781 84.03125 66.992188 83.90625 66.441406 83.789062 C 65.195312 83.519531 64.226562 82.726562 63.21875 82.003906 C 63.140625 81.945312 63.082031 81.863281 63.03125 81.789062 C 62.484375 80.742188 61.921875 79.699219 61.375 78.652344 Z M 63.828125 71.578125 C 63.882812 71.523438 63.9375 71.46875 63.988281 71.414062 C 64.0625 71.507812 64.144531 71.597656 64.210938 71.699219 C 64.601562 72.304688 64.992188 72.910156 65.351562 73.535156 C 65.453125 73.707031 65.453125 73.953125 65.433594 74.164062 C 65.421875 74.304688 65.289062 74.441406 65.15625 74.675781 C 64.589844 73.601562 63.902344 72.714844 63.828125 71.578125 Z M 50.796875 78 C 50.726562 78.027344 50.65625 78.050781 50.585938 78.078125 C 49.851562 77.117188 49.113281 76.144531 48.375 75.183594 C 48.402344 75.15625 48.429688 75.128906 48.453125 75.089844 C 48.535156 75.117188 48.632812 75.117188 48.707031 75.164062 C 49.574219 75.6875 50.230469 76.421875 50.703125 77.308594 C 50.808594 77.503906 50.769531 77.769531 50.796875 78 Z M 54.519531 72.839844 C 54.652344 72.855469 54.695312 72.84375 54.71875 72.863281 C 54.777344 72.882812 54.835938 72.910156 54.878906 72.957031 C 55.582031 73.710938 56.167969 74.53125 56.449219 75.527344 C 56.492188 75.667969 56.441406 75.839844 56.429688 75.992188 C 56.390625 76.003906 56.347656 76.011719 56.308594 76.019531 C 55.667969 75.003906 54.835938 74.109375 54.519531 72.839844 Z M 49.722656 86.230469 C 49.710938 86.277344 49.6875 86.316406 49.675781 86.359375 C 48.886719 86.152344 48.101562 85.957031 47.3125 85.75 C 47.324219 85.707031 47.335938 85.660156 47.347656 85.613281 C 48.15625 85.71875 48.972656 85.855469 49.722656 86.230469 Z M 49.722656 86.230469 " fill-opacity="1" fill-rule="nonzero"/></g></g></g><g clip-path="url(#216f2f4f6a)"><path fill="#c43322" d="M 76.507812 50.726562 C 75.894531 50.785156 75.320312 50.488281 74.910156 50.046875 C 74.453125 49.539062 74.257812 48.890625 74.28125 48.222656 C 74.304688 47.574219 74.542969 46.953125 74.863281 46.402344 C 75.171875 45.878906 75.539062 45.40625 76.023438 45.046875 C 76.515625 44.675781 77.085938 44.421875 77.636719 44.152344 C 77.832031 44.0625 78.414062 43.761719 78.421875 44.171875 C 78.429688 44.324219 78.382812 44.488281 78.371094 44.636719 C 78.355469 44.839844 78.355469 45.039062 78.347656 45.25 C 78.347656 45.457031 78.347656 45.667969 78.332031 45.878906 C 78.316406 46.078125 78.28125 46.289062 78.257812 46.488281 C 78.210938 46.773438 78.175781 47.050781 78.128906 47.34375 C 78.09375 47.582031 78.0625 47.820312 78.019531 48.058594 C 77.9375 48.484375 77.800781 48.917969 77.636719 49.324219 C 77.503906 49.667969 77.359375 50.015625 77.121094 50.316406 C 76.914062 50.585938 76.636719 50.742188 76.292969 50.757812 C 76.179688 50.757812 76.074219 50.75 75.964844 50.742188 C 75.851562 50.734375 75.851562 50.898438 75.964844 50.914062 C 76.238281 50.953125 76.515625 50.9375 76.777344 50.832031 C 77.113281 50.691406 77.339844 50.359375 77.511719 50.046875 C 77.816406 49.472656 78.03125 48.835938 78.167969 48.203125 C 78.210938 48 78.234375 47.796875 78.273438 47.605469 C 78.371094 46.945312 78.511719 46.28125 78.527344 45.609375 C 78.535156 45.183594 78.535156 44.765625 78.59375 44.339844 C 78.609375 44.203125 78.617188 44.054688 78.527344 43.933594 C 78.445312 43.824219 78.300781 43.800781 78.175781 43.816406 C 77.824219 43.851562 77.488281 44.0625 77.171875 44.210938 C 76.882812 44.351562 76.574219 44.503906 76.300781 44.683594 C 75.746094 45.027344 75.277344 45.472656 74.917969 46.027344 C 74.566406 46.566406 74.265625 47.164062 74.167969 47.804688 C 74.050781 48.5 74.148438 49.246094 74.527344 49.851562 C 74.863281 50.382812 75.410156 50.816406 76.054688 50.921875 C 76.203125 50.945312 76.367188 50.957031 76.515625 50.9375 C 76.621094 50.890625 76.621094 50.710938 76.507812 50.726562 Z M 76.507812 50.726562 " fill-opacity="1" fill-rule="nonzero"/></g><path fill="#c43322" d="M 78.324219 47.125 C 78.75 46.59375 79.175781 46.0625 79.601562 45.535156 C 79.691406 45.414062 79.796875 45.289062 79.886719 45.175781 C 79.902344 45.160156 79.921875 45.121094 79.945312 45.128906 C 80.007812 45.152344 80.007812 45.375 80.011719 45.414062 C 80.035156 45.609375 80.035156 45.800781 80.027344 45.996094 C 79.992188 46.8125 79.699219 47.589844 79.355469 48.320312 C 79.175781 48.695312 78.980469 49.046875 78.804688 49.40625 C 78.652344 49.6875 78.519531 49.996094 78.273438 50.210938 C 77.777344 50.667969 77.0625 50.765625 76.410156 50.703125 C 76.300781 50.699219 76.300781 50.863281 76.410156 50.875 C 77.023438 50.9375 77.675781 50.839844 78.191406 50.488281 C 78.480469 50.285156 78.667969 50.015625 78.832031 49.703125 C 79.035156 49.316406 79.242188 48.941406 79.4375 48.546875 C 79.820312 47.769531 80.132812 46.953125 80.191406 46.085938 C 80.207031 45.871094 80.199219 45.644531 80.183594 45.429688 C 80.171875 45.289062 80.171875 45.070312 80.035156 44.972656 C 79.855469 44.859375 79.730469 45.09375 79.648438 45.199219 C 79.167969 45.800781 78.691406 46.394531 78.203125 46.992188 C 78.128906 47.089844 78.257812 47.214844 78.324219 47.125 Z M 78.324219 47.125 " fill-opacity="1" fill-rule="nonzero"/><g clip-path="url(#a1373a02be)"><path fill="#c43322" d="M 78.636719 44.21875 C 78.757812 44.113281 78.96875 43.949219 79.125 43.996094 C 79.222656 44.015625 79.265625 44.152344 79.296875 44.25 C 79.378906 44.59375 79.332031 44.972656 79.28125 45.316406 C 79.265625 45.445312 79.234375 45.578125 79.214844 45.707031 C 79.191406 45.816406 79.355469 45.855469 79.386719 45.75 C 79.453125 45.414062 79.503906 45.070312 79.511719 44.726562 C 79.519531 44.449219 79.527344 43.917969 79.183594 43.828125 C 78.945312 43.761719 78.699219 43.957031 78.527344 44.097656 C 78.4375 44.167969 78.554688 44.285156 78.636719 44.21875 Z M 78.636719 44.21875 " fill-opacity="1" fill-rule="nonzero"/></g><g clip-path="url(#5861611ec6)"><path fill="#c43322" d="M 78.570312 54.972656 C 79.304688 54.652344 80.058594 54.394531 80.835938 54.21875 C 81.03125 54.164062 81.222656 54.128906 81.417969 54.089844 C 81.507812 54.074219 81.605469 54.050781 81.6875 54.039062 C 81.777344 54.023438 81.902344 53.976562 81.980469 54.046875 C 82.105469 54.148438 82.105469 54.390625 82.089844 54.53125 C 82.070312 54.703125 81.984375 54.859375 81.898438 55 C 81.710938 55.292969 81.441406 55.539062 81.171875 55.757812 C 80.894531 55.980469 80.589844 56.183594 80.273438 56.355469 C 79.953125 56.527344 79.625 56.667969 79.28125 56.773438 C 78.9375 56.886719 78.546875 56.972656 78.226562 56.75 C 77.972656 56.570312 77.824219 56.28125 77.683594 56.019531 C 77.503906 55.6875 77.339844 55.339844 77.464844 54.957031 C 77.578125 54.621094 77.847656 54.359375 78.09375 54.136719 C 78.355469 53.910156 78.636719 53.707031 78.945312 53.535156 C 79.550781 53.199219 80.222656 52.992188 80.910156 52.9375 C 81.066406 52.933594 81.261719 52.894531 81.417969 52.976562 C 81.554688 53.042969 81.628906 53.179688 81.664062 53.3125 C 81.746094 53.65625 81.53125 53.984375 81.335938 54.246094 C 80.886719 54.835938 80.351562 55.367188 79.757812 55.808594 C 79.476562 56.019531 79.167969 56.226562 78.816406 56.292969 C 78.503906 56.355469 78.167969 56.292969 77.890625 56.136719 C 77.75 56.0625 77.628906 55.957031 77.515625 55.847656 C 77.441406 55.765625 77.324219 55.890625 77.398438 55.964844 C 77.621094 56.226562 77.945312 56.40625 78.289062 56.457031 C 78.660156 56.527344 79.011719 56.453125 79.339844 56.28125 C 79.699219 56.09375 80.027344 55.824219 80.335938 55.554688 C 80.648438 55.285156 80.941406 54.980469 81.210938 54.671875 C 81.457031 54.382812 81.738281 54.058594 81.828125 53.679688 C 81.898438 53.386719 81.820312 53.027344 81.554688 52.847656 C 81.402344 52.746094 81.214844 52.746094 81.039062 52.761719 C 80.84375 52.765625 80.65625 52.796875 80.476562 52.820312 C 80.09375 52.886719 79.730469 52.992188 79.363281 53.140625 C 79.011719 53.289062 78.683594 53.476562 78.371094 53.695312 C 78.0625 53.910156 77.765625 54.164062 77.539062 54.480469 C 77.300781 54.792969 77.1875 55.160156 77.292969 55.546875 C 77.34375 55.742188 77.441406 55.929688 77.539062 56.109375 C 77.621094 56.257812 77.710938 56.421875 77.808594 56.5625 C 78.019531 56.847656 78.292969 57.058594 78.667969 57.078125 C 79.0625 57.085938 79.484375 56.921875 79.839844 56.765625 C 80.558594 56.457031 81.269531 56.019531 81.800781 55.433594 C 82.046875 55.167969 82.269531 54.828125 82.277344 54.449219 C 82.285156 54.292969 82.253906 54.089844 82.144531 53.964844 C 82.015625 53.820312 81.835938 53.84375 81.671875 53.878906 C 80.796875 54.03125 79.9375 54.277344 79.109375 54.597656 C 78.90625 54.671875 78.707031 54.753906 78.503906 54.851562 C 78.382812 54.867188 78.472656 55.023438 78.570312 54.972656 Z M 78.570312 54.972656 " fill-opacity="1" fill-rule="nonzero"/></g><g clip-path="url(#4987d89fe7)"><path fill="#c43322" d="M 72.21875 79.085938 C 71.769531 77.441406 71.457031 75.769531 71.269531 74.085938 C 71.03125 71.972656 71 69.835938 71.1875 67.726562 C 71.359375 65.828125 71.710938 63.945312 72.113281 62.09375 C 72.457031 60.464844 72.847656 58.84375 73.304688 57.242188 C 73.863281 55.277344 74.527344 53.328125 75.285156 51.421875 C 75.386719 51.160156 75.492188 50.898438 75.597656 50.636719 C 75.640625 50.53125 75.46875 50.496094 75.425781 50.59375 C 74.625 52.542969 73.929688 54.539062 73.316406 56.5625 C 72.832031 58.175781 72.429688 59.800781 72.0625 61.4375 C 71.660156 63.289062 71.277344 65.15625 71.070312 67.039062 C 70.828125 69.15625 70.820312 71.285156 71.015625 73.390625 C 71.171875 75.171875 71.480469 76.933594 71.914062 78.660156 C 71.957031 78.816406 71.996094 78.988281 72.039062 79.144531 C 72.085938 79.234375 72.242188 79.199219 72.21875 79.085938 Z M 72.21875 79.085938 " fill-opacity="1" fill-rule="nonzero"/></g><path fill="#c43322" d="M 71.074219 71.40625 C 71.652344 69.140625 72.273438 66.890625 72.953125 64.664062 C 73.273438 63.617188 73.59375 62.570312 73.953125 61.539062 C 74.289062 60.605469 74.691406 59.695312 75.222656 58.863281 C 75.882812 57.828125 76.703125 56.90625 77.652344 56.128906 C 77.734375 56.0625 77.621094 55.9375 77.53125 56.011719 C 76.679688 56.699219 75.933594 57.503906 75.3125 58.410156 C 74.730469 59.253906 74.28125 60.164062 73.914062 61.128906 C 73.542969 62.109375 73.242188 63.117188 72.929688 64.117188 C 72.570312 65.277344 72.21875 66.441406 71.898438 67.609375 C 71.546875 68.855469 71.21875 70.105469 70.898438 71.359375 C 70.882812 71.464844 71.046875 71.515625 71.074219 71.40625 Z M 71.074219 71.40625 " fill-opacity="1" fill-rule="nonzero"/><g clip-path="url(#9939de187d)"><path fill="#c43322" d="M 70.957031 72.621094 C 70.605469 71.046875 70.03125 69.542969 69.484375 68.035156 C 68.9375 66.539062 68.410156 65.023438 68.140625 63.4375 C 67.847656 61.703125 67.988281 59.949219 68.117188 58.207031 C 68.183594 57.3125 68.257812 56.40625 68.339844 55.511719 C 68.421875 54.628906 68.535156 53.753906 68.625 52.863281 C 68.707031 52.042969 68.757812 51.199219 68.617188 50.375 C 68.496094 49.726562 68.25 48.808594 67.496094 48.65625 C 67.347656 48.621094 67.183594 48.640625 67.035156 48.703125 C 66.996094 48.71875 66.964844 48.746094 66.972656 48.785156 C 67.011719 49.136719 67.144531 49.457031 67.292969 49.769531 C 67.464844 50.113281 67.625 50.449219 67.789062 50.785156 C 68.125 51.472656 68.453125 52.160156 68.789062 52.847656 C 69.460938 54.238281 70.132812 55.613281 70.808594 57.003906 C 71.480469 58.386719 72.152344 59.761719 72.816406 61.144531 C 73.371094 62.296875 73.738281 63.542969 73.832031 64.8125 C 73.886719 65.410156 73.871094 66.007812 73.820312 66.597656 C 73.789062 66.972656 73.75 67.347656 73.667969 67.710938 C 73.585938 68.09375 73.460938 68.460938 73.316406 68.828125 C 73.199219 69.132812 73.0625 69.425781 72.914062 69.707031 C 72.832031 69.863281 72.742188 70.03125 72.652344 70.179688 C 72.585938 70.289062 72.480469 70.523438 72.363281 70.574219 C 72.183594 70.640625 72.105469 70.328125 72.105469 70.214844 C 72.101562 70.035156 72.152344 69.863281 72.210938 69.699219 C 72.332031 69.378906 72.480469 69.074219 72.621094 68.757812 C 72.898438 68.140625 73.199219 67.511719 73.535156 66.914062 C 74.109375 65.882812 74.828125 64.933594 75.671875 64.101562 C 77.496094 62.308594 79.828125 61.097656 82.328125 60.570312 C 82.53125 60.523438 82.742188 60.488281 82.949219 60.449219 C 83.03125 60.433594 83.023438 60.308594 82.949219 60.277344 C 82.234375 60.097656 81.679688 60.882812 81.277344 61.351562 C 80.78125 61.929688 80.296875 62.503906 79.828125 63.09375 C 78.878906 64.273438 77.9375 65.472656 76.890625 66.570312 C 76.300781 67.183594 75.679688 67.773438 75.015625 68.304688 C 74.933594 68.371094 75.042969 68.488281 75.132812 68.421875 C 76.285156 67.503906 77.292969 66.425781 78.25 65.304688 C 79.199219 64.179688 80.101562 62.996094 81.058594 61.875 C 81.320312 61.5625 81.589844 61.257812 81.867188 60.957031 C 82.136719 60.671875 82.496094 60.34375 82.921875 60.441406 C 82.921875 60.382812 82.921875 60.328125 82.921875 60.269531 C 81.859375 60.449219 80.828125 60.734375 79.835938 61.144531 C 78.511719 61.691406 77.285156 62.453125 76.203125 63.386719 C 75.304688 64.164062 74.492188 65.066406 73.847656 66.078125 C 73.460938 66.675781 73.132812 67.316406 72.832031 67.953125 C 72.675781 68.28125 72.527344 68.617188 72.375 68.945312 C 72.242188 69.253906 72.070312 69.558594 72.003906 69.886719 C 71.941406 70.148438 71.941406 70.5 72.183594 70.679688 C 72.449219 70.882812 72.660156 70.539062 72.78125 70.34375 C 73.125 69.78125 73.40625 69.171875 73.632812 68.550781 C 73.738281 68.273438 73.832031 67.972656 73.886719 67.683594 C 73.976562 67.203125 74.027344 66.703125 74.058594 66.21875 C 74.140625 64.867188 73.945312 63.492188 73.496094 62.207031 C 73.296875 61.644531 73.035156 61.097656 72.773438 60.5625 C 72.429688 59.84375 72.078125 59.132812 71.726562 58.417969 C 71.03125 56.972656 70.328125 55.546875 69.632812 54.105469 C 68.9375 52.664062 68.238281 51.234375 67.542969 49.792969 C 67.382812 49.457031 67.207031 49.121094 67.183594 48.746094 C 67.167969 48.769531 67.136719 48.808594 67.121094 48.828125 C 67.472656 48.679688 67.855469 48.882812 68.066406 49.171875 C 68.289062 49.488281 68.394531 49.882812 68.46875 50.257812 C 68.640625 51.0625 68.59375 51.90625 68.511719 52.722656 C 68.429688 53.589844 68.320312 54.449219 68.238281 55.308594 C 68.152344 56.183594 68.078125 57.058594 68.011719 57.929688 C 67.886719 59.640625 67.734375 61.375 67.96875 63.070312 C 68.183594 64.617188 68.675781 66.105469 69.207031 67.585938 C 69.738281 69.066406 70.3125 70.53125 70.703125 72.054688 C 70.753906 72.25 70.792969 72.4375 70.835938 72.628906 C 70.816406 72.78125 70.980469 72.726562 70.957031 72.621094 Z M 70.957031 72.621094 " fill-opacity="1" fill-rule="nonzero"/></g></svg>